<?xml version="1.0" encoding="UTF-8"?>
<!DOCTYPE svg PUBLIC "-//W3C//DTD SVG 1.1//EN" "http://www.w3.org/Graphics/SVG/1.1/DTD/svg11.dtd">
<svg xmlns="http://www.w3.org/2000/svg" version="1.1" width="1024px" height="1024px" style="shape-rendering:geometricPrecision; text-rendering:geometricPrecision; image-rendering:optimizeQuality; fill-rule:evenodd; clip-rule:evenodd" xmlns:xlink="http://www.w3.org/1999/xlink">
<g><path style="opacity:0.004" fill="#6a7776" d="M 323.5,5.5 C 324.833,6.16667 324.833,6.16667 323.5,5.5 Z"/></g>
<g><path style="opacity:0.004" fill="#6e7472" d="M 747.5,13.5 C 748.833,14.1667 748.833,14.1667 747.5,13.5 Z"/></g>
<g><path style="opacity:0.004" fill="#6d7472" d="M 731.5,29.5 C 732.833,30.1667 732.833,30.1667 731.5,29.5 Z"/></g>
<g><path style="opacity:0.004" fill="#637d7d" d="M 403.5,45.5 C 404.833,46.1667 404.833,46.1667 403.5,45.5 Z"/></g>
<g><path style="opacity:0.004" fill="#637a78" d="M 635.5,45.5 C 636.833,46.1667 636.833,46.1667 635.5,45.5 Z"/></g>
<g><path style="opacity:0.004" fill="#6a7472" d="M 731.5,61.5 C 732.833,62.1667 732.833,62.1667 731.5,61.5 Z"/></g>
<g><path style="opacity:0.004" fill="#6f726f" d="M 827.5,61.5 C 828.833,62.1667 828.833,62.1667 827.5,61.5 Z"/></g>
<g><path style="opacity:0.004" fill="#707070" d="M 891.5,61.5 C 892.833,62.1667 892.833,62.1667 891.5,61.5 Z"/></g>
<g><path style="opacity:0.004" fill="#70716f" d="M 915.5,61.5 C 916.833,62.1667 916.833,62.1667 915.5,61.5 Z"/></g>
<g><path style="opacity:0.004" fill="#6f716f" d="M 859.5,85.5 C 860.833,86.1667 860.833,86.1667 859.5,85.5 Z"/></g>
<g><path style="opacity:0.004" fill="#6c716f" d="M 179.5,93.5 C 180.833,94.1667 180.833,94.1667 179.5,93.5 Z"/></g>
<g><path style="opacity:0.004" fill="#6b7473" d="M 827.5,141.5 C 828.833,142.167 828.833,142.167 827.5,141.5 Z"/></g>
<g><path style="opacity:0.004" fill="#6d716f" d="M 979.5,157.5 C 980.833,158.167 980.833,158.167 979.5,157.5 Z"/></g>
<g><path style="opacity:0.004" fill="#707070" d="M 996.5,192.5 C 997.833,193.167 997.833,193.167 996.5,192.5 Z"/></g>
<g><path style="opacity:0.004" fill="#2dbfd6" d="M 502.5,209.5 C 503.833,210.167 503.833,210.167 502.5,209.5 Z"/></g>
<g><path style="opacity:0.004" fill="#2ac0d8" d="M 508.5,209.5 C 509.833,210.167 509.833,210.167 508.5,209.5 Z"/></g>
<g><path style="opacity:0.004" fill="#2bbeda" d="M 510.5,210.5 C 511.833,211.167 511.833,211.167 510.5,210.5 Z"/></g>
<g><path style="opacity:0.004" fill="#2dbad7" d="M 470.5,211.5 C 471.833,212.167 471.833,212.167 470.5,211.5 Z"/></g>
<g><path style="opacity:0.004" fill="#29bcd8" d="M 475.5,211.5 C 476.833,212.167 476.833,212.167 475.5,211.5 Z"/></g>
<g><path style="opacity:0.004" fill="#2fbbd4" d="M 464.5,212.5 C 465.833,213.167 465.833,213.167 464.5,212.5 Z"/></g>
<g><path style="opacity:0.859" fill="#3ac4e0" d="M 519.5,213.5 C 506.167,213.5 492.833,213.5 479.5,213.5C 485.234,212.814 491.067,212.148 497,211.5C 504.506,211.834 512.006,212.501 519.5,213.5 Z"/></g>
<g><path style="opacity:0.004" fill="#2dbdd6" d="M 444.5,216.5 C 443.761,216.631 443.094,216.464 442.5,216C 443.437,215.308 444.103,215.475 444.5,216.5 Z"/></g>
<g><path style="opacity:0.008" fill="#29b9d5" d="M 446.5,215.5 C 447.833,216.167 447.833,216.167 446.5,215.5 Z"/></g>
<g><path style="opacity:0.004" fill="#2fbed8" d="M 449.5,215.5 C 450.833,216.167 450.833,216.167 449.5,215.5 Z"/></g>
<g><path style="opacity:0.004" fill="#27b8d4" d="M 453.5,216.5 C 452.833,215.167 452.833,215.167 453.5,216.5 Z"/></g>
<g><path style="opacity:0.998" fill="#14bfe0" d="M 469.5,214.5 C 472.625,213.521 475.958,213.187 479.5,213.5C 500.799,213.692 522.132,215.358 543.5,218.5C 544.833,218.333 546.167,218.167 547.5,218C 545.942,217.79 544.609,217.29 543.5,216.5C 548.167,217.167 552.833,217.833 557.5,218.5C 557.5,218.833 557.5,219.167 557.5,219.5C 556.127,219.343 554.793,219.51 553.5,220C 563.39,223.305 573.39,225.971 583.5,228C 582.584,227.722 581.918,227.222 581.5,226.5C 582.791,226.737 583.791,226.404 584.5,225.5C 586.085,226.533 587.419,227.866 588.5,229.5C 587.761,229.369 587.094,229.536 586.5,230C 597.383,234.685 608.049,239.852 618.5,245.5C 619.463,245.03 619.463,244.363 618.5,243.5C 620.434,244.11 622.101,245.11 623.5,246.5C 622.761,246.369 622.094,246.536 621.5,247C 630.23,252.278 638.897,258.444 647.5,265.5C 648.298,265.043 648.631,264.376 648.5,263.5C 649.833,264.167 650.833,265.167 651.5,266.5C 650.761,266.369 650.094,266.536 649.5,267C 659.03,274.698 667.697,283.198 675.5,292.5C 675.577,294.577 675.577,296.744 675.5,299C 675.903,300.473 676.57,301.806 677.5,303C 675.139,303.197 673.472,304.364 672.5,306.5C 671.749,305.624 671.249,304.624 671,303.5C 670.74,305.618 669.74,307.284 668,308.5C 668.148,307.175 667.982,306.008 667.5,305C 669,303.833 670.5,302.667 672,301.5C 672.604,303.686 673.77,303.852 675.5,302C 673.854,300.445 673.521,298.779 674.5,297C 673.167,297.333 671.833,297.667 670.5,298C 671.856,295.726 671.356,293.893 669,292.5C 667.321,292.72 665.821,293.22 664.5,294C 666.965,294.632 668.631,296.132 669.5,298.5C 669.154,299.696 668.654,299.696 668,298.5C 667.517,299.448 667.351,300.448 667.5,301.5C 666.127,301.343 664.793,301.51 663.5,302C 664.743,303.154 665.743,304.488 666.5,306C 663.833,306.667 663.833,307.333 666.5,308C 664.833,308.333 663.167,308.667 661.5,309C 663.929,309.451 664.096,310.285 662,311.5C 659.87,310.859 658.37,309.526 657.5,307.5C 658.441,307.511 659.108,307.011 659.5,306C 658.144,304.433 657.477,302.6 657.5,300.5C 656.448,300.649 655.448,300.483 654.5,300C 655.833,298.16 655.666,297.66 654,298.5C 653.692,297.692 653.192,297.025 652.5,296.5C 651.5,297.833 650.5,299.167 649.5,300.5C 652.951,302.048 653.284,304.048 650.5,306.5C 651.3,310.574 653.634,313.407 657.5,315C 657,315.5 656.5,316 656,316.5C 654.883,316.335 653.716,316.002 652.5,315.5C 651.304,315.846 651.304,316.346 652.5,317C 650.919,317.707 649.419,318.54 648,319.5C 647.667,319.167 647.333,318.833 647,318.5C 644.755,320.745 642.921,322.579 641.5,324C 640.874,324.75 640.374,325.584 640,326.5C 639.405,325.101 639.572,323.768 640.5,322.5C 640.154,321.304 639.654,321.304 639,322.5C 638.87,317.945 639.87,317.611 642,321.5C 643.328,319.978 643.162,318.311 641.5,316.5C 642.262,316.089 643.262,315.923 644.5,316C 643.624,314.414 642.624,312.914 641.5,311.5C 642.326,310.549 642.492,309.549 642,308.5C 640.374,308.854 638.541,308.854 636.5,308.5C 636.978,305.722 635.978,303.722 633.5,302.5C 634.025,301.808 634.692,301.308 635.5,301C 635.07,300.08 634.736,299.247 634.5,298.5C 633.636,300.197 632.303,301.363 630.5,302C 630.833,303 631.167,304 631.5,305C 627.879,305.178 625.212,306.845 623.5,310C 624.833,310.333 626.167,310.667 627.5,311C 626.315,312.353 624.981,313.52 623.5,314.5C 624.066,315.291 624.899,315.291 626,314.5C 627.49,315.317 628.99,316.15 630.5,317C 629.833,317.333 629.167,317.667 628.5,318C 629.833,319 629.833,320 628.5,321C 629.5,321.667 630.5,321.667 631.5,321C 630.346,320.086 630.513,319.253 632,318.5C 634.255,319.042 636.088,320.209 637.5,322C 635.983,323.779 635.149,323.279 635,320.5C 633.956,321.623 633.29,322.956 633,324.5C 631.612,323.446 630.112,323.28 628.5,324C 630.842,325.392 630.842,326.225 628.5,326.5C 627.761,326.369 627.094,326.536 626.5,327C 627.252,327.671 627.586,328.504 627.5,329.5C 626.5,328.833 625.5,328.167 624.5,327.5C 623.5,326.167 622.5,324.833 621.5,323.5C 622.239,323.631 622.906,323.464 623.5,323C 604.681,304.582 583.514,291.082 560,282.5C 558.316,282.683 558.15,283.35 559.5,284.5C 550.775,281.148 541.775,278.815 532.5,277.5C 528.056,276.187 523.389,275.354 518.5,275C 507.172,274.5 495.838,274.333 484.5,274.5C 495.659,273.669 506.993,273.169 518.5,273C 500.026,271.689 481.692,272.689 463.5,276C 461.5,276.667 459.5,277.333 457.5,278C 458.793,278.49 460.127,278.657 461.5,278.5C 460.432,279.434 459.099,279.768 457.5,279.5C 443.491,281.5 430.491,286.333 418.5,294C 419.094,294.464 419.761,294.631 420.5,294.5C 419.101,295.89 417.434,296.89 415.5,297.5C 416.463,296.637 416.463,295.97 415.5,295.5C 412.787,297.382 409.953,299.049 407,300.5C 405.739,300.241 404.739,299.574 404,298.5C 403.667,299.167 403.333,299.833 403,300.5C 402.722,299.584 402.222,298.918 401.5,298.5C 401.389,297.883 401.056,297.383 400.5,297C 403.521,296.151 404.021,294.651 402,292.5C 401.851,295.279 401.017,295.779 399.5,294C 398.522,290.493 398.522,286.66 399.5,282.5C 402.921,282.762 403.921,281.428 402.5,278.5C 403.698,278.06 404.865,277.727 406,277.5C 406.49,276.207 406.657,274.873 406.5,273.5C 403.402,273.413 403.068,273.913 405.5,275C 403.508,275.574 402.008,276.741 401,278.5C 400.289,276.633 400.789,275.133 402.5,274C 400.999,272.748 399.332,271.748 397.5,271C 399.175,269.291 400.842,267.624 402.5,266C 400.709,265.585 399.376,264.585 398.5,263C 399.549,262.508 400.549,262.674 401.5,263.5C 402.681,262.485 403.681,261.319 404.5,260C 404.167,259.5 403.833,259 403.5,258.5C 400.853,261.18 399.52,260.513 399.5,256.5C 404.956,257.411 406.289,255.745 403.5,251.5C 399.107,252.727 398.774,252.394 402.5,250.5C 403.262,249.372 403.929,248.205 404.5,247C 403.365,246.251 402.365,246.417 401.5,247.5C 401.709,248.086 402.043,248.586 402.5,249C 400.866,249.494 399.199,249.66 397.5,249.5C 397.531,253.276 396.864,253.443 395.5,250C 395.905,249.055 396.572,248.388 397.5,248C 393.777,246.284 393.777,244.284 397.5,242C 395.241,242.439 392.908,242.939 390.5,243.5C 395.113,240.188 400.113,237.354 405.5,235C 412.719,231.813 420.052,228.813 427.5,226C 426.552,225.517 425.552,225.351 424.5,225.5C 425.93,224.463 427.597,223.796 429.5,223.5C 428.537,224.363 428.537,225.03 429.5,225.5C 445.305,220.641 461.305,217.141 477.5,215C 474.854,214.503 472.187,214.336 469.5,214.5 Z"/></g>
<g><path style="opacity:1" fill="#1bafce" d="M 479.5,213.5 C 492.833,213.5 506.167,213.5 519.5,213.5C 527.643,213.685 535.643,214.685 543.5,216.5C 544.609,217.29 545.942,217.79 547.5,218C 546.167,218.167 544.833,218.333 543.5,218.5C 522.132,215.358 500.799,213.692 479.5,213.5 Z"/></g>
<g><path style="opacity:0.004" fill="#29bcd5" d="M 553.5,216.5 C 552.833,215.167 552.833,215.167 553.5,216.5 Z"/></g>
<g><path style="opacity:0.016" fill="#26bcd8" d="M 558.5,215.5 C 559.833,216.167 559.833,216.167 558.5,215.5 Z"/></g>
<g><path style="opacity:0.008" fill="#2abfd6" d="M 444.5,216.5 C 445.833,217.167 445.833,217.167 444.5,216.5 Z"/></g>
<g><path style="opacity:0.008" fill="#26bcd7" d="M 553.5,216.5 C 554.833,217.167 554.833,217.167 553.5,216.5 Z"/></g>
<g><path style="opacity:0.004" fill="#2bbbd4" d="M 564.5,216.5 C 565.833,217.167 565.833,217.167 564.5,216.5 Z"/></g>
<g><path style="opacity:0.004" fill="#26bcd5" d="M 557.5,217.5 C 558.833,218.167 558.833,218.167 557.5,217.5 Z"/></g>
<g><path style="opacity:0.004" fill="#687672" d="M 885.5,218.5 C 886.833,219.167 886.833,219.167 885.5,218.5 Z"/></g>
<g><path style="opacity:0.004" fill="#2ebcd9" d="M 566.5,219.5 C 567.833,220.167 567.833,220.167 566.5,219.5 Z"/></g>
<g><path style="opacity:1" fill="#24b3d1" d="M 469.5,214.5 C 472.187,214.336 474.854,214.503 477.5,215C 461.305,217.141 445.305,220.641 429.5,225.5C 428.537,225.03 428.537,224.363 429.5,223.5C 437.497,220.838 445.497,218.504 453.5,216.5C 459.054,215.368 464.388,214.702 469.5,214.5 Z"/></g>
<g><path style="opacity:0.999" fill="#28b5d3" d="M 578.5,224.5 C 579.29,225.401 580.29,226.068 581.5,226.5C 581.918,227.222 582.584,227.722 583.5,228C 573.39,225.971 563.39,223.305 553.5,220C 554.793,219.51 556.127,219.343 557.5,219.5C 558.496,219.586 559.329,219.252 560,218.5C 565.856,221.342 572.023,223.342 578.5,224.5 Z"/></g>
<g><path style="opacity:0.004" fill="#29bed7" d="M 578.5,223.5 C 579.833,224.167 579.833,224.167 578.5,223.5 Z"/></g>
<g><path style="opacity:0.004" fill="#29bcd6" d="M 587.5,223.5 C 588.833,224.167 588.833,224.167 587.5,223.5 Z"/></g>
<g><path style="opacity:0.004" fill="#6c706f" d="M 76.5,224.5 C 77.8333,225.167 77.8333,225.167 76.5,224.5 Z"/></g>
<g><path style="opacity:0.02" fill="#27bdd8" d="M 420.5,224.5 C 421.833,225.167 421.833,225.167 420.5,224.5 Z"/></g>
<g><path style="opacity:0.004" fill="#2bbbd6" d="M 584.5,225.5 C 583.833,224.167 583.833,224.167 584.5,225.5 Z"/></g>
<g><path style="opacity:0.004" fill="#2ec0d8" d="M 417.5,225.5 C 418.833,226.167 418.833,226.167 417.5,225.5 Z"/></g>
<g><path style="opacity:0.004" fill="#29bfd8" d="M 587.5,226.5 C 588.833,227.167 588.833,227.167 587.5,226.5 Z"/></g>
<g><path style="opacity:0.004" fill="#2cbbd8" d="M 595.5,229.5 C 596.833,230.167 596.833,230.167 595.5,229.5 Z"/></g>
<g><path style="opacity:0.004" fill="#2abad7" d="M 598.5,231.5 C 599.833,232.167 599.833,232.167 598.5,231.5 Z"/></g>
<g><path style="opacity:0.004" fill="#27bdd7" d="M 603.5,233.5 C 604.833,234.167 604.833,234.167 603.5,233.5 Z"/></g>
<g><path style="opacity:0.925" fill="#24b3d2" d="M 588.5,229.5 C 591.833,230.5 595.167,231.5 598.5,232.5C 605.167,236.167 611.833,239.833 618.5,243.5C 619.463,244.363 619.463,245.03 618.5,245.5C 608.049,239.852 597.383,234.685 586.5,230C 587.094,229.536 587.761,229.369 588.5,229.5 Z"/></g>
<g><path style="opacity:0.004" fill="#2ab9d5" d="M 383.5,239.5 C 384.833,240.167 384.833,240.167 383.5,239.5 Z"/></g>
<g><path style="opacity:0.008" fill="#2dbcd7" d="M 385.5,239.5 C 386.833,240.167 386.833,240.167 385.5,239.5 Z"/></g>
<g><path style="opacity:0.012" fill="#31c1d9" d="M 384.5,241.5 C 385.833,242.167 385.833,242.167 384.5,241.5 Z"/></g>
<g><path style="opacity:0.004" fill="#6a7472" d="M 942.5,242.5 C 943.833,243.167 943.833,243.167 942.5,242.5 Z"/></g>
<g><path style="opacity:0.998" fill="#13bfe0" d="M 401.5,298.5 C 399.662,300.661 399.328,302.995 400.5,305.5C 395.81,310.395 390.31,313.728 384,315.5C 383.316,316.784 383.483,317.951 384.5,319C 371.857,331.473 361.023,345.307 352,360.5C 351.506,362.134 351.34,363.801 351.5,365.5C 351.672,366.492 351.338,367.158 350.5,367.5C 350.631,366.761 350.464,366.094 350,365.5C 349,366.833 348,368.167 347,369.5C 346.612,368.572 345.945,367.905 345,367.5C 343.829,368.34 342.662,369.173 341.5,370C 342.961,371.351 344.294,372.851 345.5,374.5C 342.446,381.326 339.779,388.326 337.5,395.5C 336.833,396.833 336.167,396.833 335.5,395.5C 336.46,394.188 336.294,392.854 335,391.5C 331.601,392.071 328.101,393.237 324.5,395C 326.573,395.118 327.907,396.118 328.5,398C 327.281,400.384 327.281,402.717 328.5,405C 327.5,405.333 326.5,405.667 325.5,406C 327.663,406.245 329.33,407.245 330.5,409C 328.429,410.436 326.596,409.936 325,407.5C 322.928,410.154 321.261,409.82 320,406.5C 318.887,407.76 318.72,408.927 319.5,410C 318.338,410.827 317.171,411.66 316,412.5C 315.747,411.465 314.914,410.465 313.5,409.5C 312.547,413.741 311.213,413.408 309.5,408.5C 308.522,408.977 307.689,409.643 307,410.5C 306.577,409.044 305.744,408.544 304.5,409C 305.711,409.893 305.711,410.726 304.5,411.5C 303.421,409.457 301.754,408.124 299.5,407.5C 300.202,408.866 300.202,410.533 299.5,412.5C 298.147,411.315 296.98,409.981 296,408.5C 294.657,409.214 293.324,408.88 292,407.5C 291.383,408.449 291.549,409.282 292.5,410C 291.5,410.667 290.5,410.667 289.5,410C 290.654,409.086 290.487,408.253 289,407.5C 288.667,407.833 288.333,408.167 288,408.5C 285.173,406.506 282.673,404.172 280.5,401.5C 281.274,400.289 282.107,400.289 283,401.5C 283.667,400.833 284.333,400.167 285,399.5C 286.83,401.158 288.164,403.158 289,405.5C 289.785,403.714 290.951,402.214 292.5,401C 287.954,400.19 287.62,398.857 291.5,397C 288.736,395.456 288.903,394.289 292,393.5C 292.308,394.308 292.808,394.975 293.5,395.5C 294.833,393.167 294.833,390.833 293.5,388.5C 292.476,389.853 291.143,390.52 289.5,390.5C 289.906,388.891 289.906,387.557 289.5,386.5C 288.719,387.729 288.219,389.062 288,390.5C 286.921,388.606 285.587,388.273 284,389.5C 284.353,387.772 284.519,386.106 284.5,384.5C 283.306,383.201 282.306,381.868 281.5,380.5C 283.004,374.331 285.004,368.331 287.5,362.5C 287.03,361.537 286.363,361.537 285.5,362.5C 285.796,360.597 286.463,358.93 287.5,357.5C 287.351,358.552 287.517,359.552 288,360.5C 309.473,309.266 343.64,270.266 390.5,243.5C 392.908,242.939 395.241,242.439 397.5,242C 393.777,244.284 393.777,246.284 397.5,248C 396.572,248.388 395.905,249.055 395.5,250C 396.864,253.443 397.531,253.276 397.5,249.5C 399.199,249.66 400.866,249.494 402.5,249C 402.043,248.586 401.709,248.086 401.5,247.5C 402.365,246.417 403.365,246.251 404.5,247C 403.929,248.205 403.262,249.372 402.5,250.5C 398.774,252.394 399.107,252.727 403.5,251.5C 406.289,255.745 404.956,257.411 399.5,256.5C 399.52,260.513 400.853,261.18 403.5,258.5C 403.833,259 404.167,259.5 404.5,260C 403.681,261.319 402.681,262.485 401.5,263.5C 400.549,262.674 399.549,262.508 398.5,263C 399.376,264.585 400.709,265.585 402.5,266C 400.842,267.624 399.175,269.291 397.5,271C 399.332,271.748 400.999,272.748 402.5,274C 400.789,275.133 400.289,276.633 401,278.5C 402.008,276.741 403.508,275.574 405.5,275C 403.068,273.913 403.402,273.413 406.5,273.5C 406.657,274.873 406.49,276.207 406,277.5C 404.865,277.727 403.698,278.06 402.5,278.5C 403.921,281.428 402.921,282.762 399.5,282.5C 398.522,286.66 398.522,290.493 399.5,294C 401.017,295.779 401.851,295.279 402,292.5C 404.021,294.651 403.521,296.151 400.5,297C 401.056,297.383 401.389,297.883 401.5,298.5 Z"/></g>
<g><path style="opacity:0.004" fill="#29b9d5" d="M 368.5,248.5 C 369.833,249.167 369.833,249.167 368.5,248.5 Z"/></g>
<g><path style="opacity:0.008" fill="#2cb9d6" d="M 634.5,248.5 C 635.833,249.167 635.833,249.167 634.5,248.5 Z"/></g>
<g><path style="opacity:0.012" fill="#29bed8" d="M 373.5,250.5 C 372.833,249.167 372.833,249.167 373.5,250.5 Z"/></g>
<g><path style="opacity:0.004" fill="#28bbd7" d="M 634.5,251.5 C 635.833,252.167 635.833,252.167 634.5,251.5 Z"/></g>
<g><path style="opacity:0.004" fill="#29b9d6" d="M 638.5,252.5 C 639.833,253.167 639.833,253.167 638.5,252.5 Z"/></g>
<g><path style="opacity:0.996" fill="#25b5d4" d="M 623.5,246.5 C 627.15,248.472 630.816,250.472 634.5,252.5C 639.142,256.136 643.809,259.803 648.5,263.5C 648.631,264.376 648.298,265.043 647.5,265.5C 638.897,258.444 630.23,252.278 621.5,247C 622.094,246.536 622.761,246.369 623.5,246.5 Z"/></g>
<g><path style="opacity:0.004" fill="#29bbd4" d="M 360.5,255.5 C 361.525,255.897 361.692,256.563 361,257.5C 360.536,256.906 360.369,256.239 360.5,255.5 Z"/></g>
<g><path style="opacity:0.996" fill="#21b0d0" d="M 424.5,225.5 C 425.552,225.351 426.552,225.517 427.5,226C 420.052,228.813 412.719,231.813 405.5,235C 400.113,237.354 395.113,240.188 390.5,243.5C 343.64,270.266 309.473,309.266 288,360.5C 287.517,359.552 287.351,358.552 287.5,357.5C 291.225,348.382 295.225,339.382 299.5,330.5C 313.761,306.986 331.094,285.986 351.5,267.5C 358.872,261.822 366.205,256.155 373.5,250.5C 389.516,240.326 406.516,231.993 424.5,225.5 Z"/></g>
<g><path style="opacity:0.004" fill="#27b9d6" d="M 652.5,264.5 C 653.833,265.167 653.833,265.167 652.5,264.5 Z"/></g>
<g><path style="opacity:0.004" fill="#2ebcd5" d="M 351.5,267.5 C 350.833,266.167 350.833,266.167 351.5,267.5 Z"/></g>
<g><path style="opacity:0.008" fill="#2cbdd5" d="M 344.5,271.5 C 345.833,272.167 345.833,272.167 344.5,271.5 Z"/></g>
<g><path style="opacity:0.992" fill="#1eaece" d="M 484.5,274.5 C 477.014,276.137 469.348,277.471 461.5,278.5C 460.127,278.657 458.793,278.49 457.5,278C 459.5,277.333 461.5,276.667 463.5,276C 481.692,272.689 500.026,271.689 518.5,273C 506.993,273.169 495.659,273.669 484.5,274.5 Z"/></g>
<g><path style="opacity:0.004" fill="#27c1e0" d="M 492.5,275.5 C 493.833,276.167 493.833,276.167 492.5,275.5 Z"/></g>
<g><path style="opacity:0.012" fill="#26bfdc" d="M 514.5,275.5 C 515.833,276.167 515.833,276.167 514.5,275.5 Z"/></g>
<g><path style="opacity:0.004" fill="#27c1e0" d="M 520.5,277.5 C 521.251,276.427 522.251,276.26 523.5,277C 522.552,277.483 521.552,277.649 520.5,277.5 Z"/></g>
<g><path style="opacity:0.004" fill="#26c0de" d="M 474.5,277.5 C 475.833,278.167 475.833,278.167 474.5,277.5 Z"/></g>
<g><path style="opacity:0.004" fill="#26bfdc" d="M 498.5,277.5 C 499.833,278.167 499.833,278.167 498.5,277.5 Z"/></g>
<g><path style="opacity:0.004" fill="#28c3df" d="M 527.5,277.5 C 528.833,278.167 528.833,278.167 527.5,277.5 Z"/></g>
<g><path style="opacity:0.004" fill="#24bfde" d="M 532.5,277.5 C 532.5,277.833 532.5,278.167 532.5,278.5C 529.833,278.167 529.833,277.833 532.5,277.5 Z"/></g>
<g><path style="opacity:0.004" fill="#28c4e2" d="M 532.5,278.5 C 533.833,279.167 533.833,279.167 532.5,278.5 Z"/></g>
<g><path style="opacity:0.004" fill="#28bad7" d="M 670.5,280.5 C 671.833,281.167 671.833,281.167 670.5,280.5 Z"/></g>
<g><path style="opacity:0.004" fill="#29c0db" d="M 451.5,282.5 C 452.833,283.167 452.833,283.167 451.5,282.5 Z"/></g>
<g><path style="opacity:1" fill="#26b6d4" d="M 457.5,279.5 C 447.5,282.666 437.834,286.666 428.5,291.5C 425.833,292.5 423.167,293.5 420.5,294.5C 419.761,294.631 419.094,294.464 418.5,294C 430.491,286.333 443.491,281.5 457.5,279.5 Z"/></g>
<g><path style="opacity:0.004" fill="#28bfdd" d="M 550.5,285.5 C 550.897,284.475 551.563,284.308 552.5,285C 551.906,285.464 551.239,285.631 550.5,285.5 Z"/></g>
<g><path style="opacity:0.004" fill="#29c1df" d="M 559.5,287.5 C 559.897,286.475 560.563,286.308 561.5,287C 560.906,287.464 560.239,287.631 559.5,287.5 Z"/></g>
<g><path style="opacity:0.016" fill="#27c2e1" d="M 428.5,291.5 C 429.833,292.167 429.833,292.167 428.5,291.5 Z"/></g>
<g><path style="opacity:0.004" fill="#22bedf" d="M 569.5,292.5 C 570.833,293.167 570.833,293.167 569.5,292.5 Z"/></g>
<g><path style="opacity:0.004" fill="#23c2e3" d="M 576.5,292.5 C 575.833,293.167 575.833,293.167 576.5,292.5 Z"/></g>
<g><path style="opacity:1" fill="#1eb3d3" d="M 621.5,323.5 C 618.461,320.46 615.127,317.794 611.5,315.5C 611.167,314.5 610.5,313.833 609.5,313.5C 608.421,311.457 606.754,310.124 604.5,309.5C 598.378,304.387 591.711,300.054 584.5,296.5C 582.151,294.659 579.485,293.326 576.5,292.5C 570.572,290.997 564.905,288.33 559.5,284.5C 558.15,283.35 558.316,282.683 560,282.5C 583.514,291.082 604.681,304.582 623.5,323C 622.906,323.464 622.239,323.631 621.5,323.5 Z"/></g>
<g><path style="opacity:0.004" fill="#2cbcd8" d="M 323.5,293.5 C 324.833,294.167 324.833,294.167 323.5,293.5 Z"/></g>
<g><path style="opacity:0.012" fill="#26c2e0" d="M 425.5,293.5 C 426.833,294.167 426.833,294.167 425.5,293.5 Z"/></g>
<g><path style="opacity:0.004" fill="#24bfde" d="M 567.5,294.5 C 568.833,295.167 568.833,295.167 567.5,294.5 Z"/></g>
<g><path style="opacity:0.005" fill="#27bddc" d="M 584.5,296.5 C 585.463,297.363 585.463,298.03 584.5,298.5C 583.227,297.743 583.227,297.077 584.5,296.5 Z"/></g>
<g><path style="opacity:0.997" fill="#1fb6d5" d="M 415.5,297.5 C 410.219,300.78 405.219,304.447 400.5,308.5C 398.246,309.124 396.579,310.457 395.5,312.5C 377.152,327.175 362.486,344.841 351.5,365.5C 351.34,363.801 351.506,362.134 352,360.5C 361.023,345.307 371.857,331.473 384.5,319C 383.483,317.951 383.316,316.784 384,315.5C 390.31,313.728 395.81,310.395 400.5,305.5C 399.328,302.995 399.662,300.661 401.5,298.5C 402.222,298.918 402.722,299.584 403,300.5C 403.333,299.833 403.667,299.167 404,298.5C 404.739,299.574 405.739,300.241 407,300.5C 409.953,299.049 412.787,297.382 415.5,295.5C 416.463,295.97 416.463,296.637 415.5,297.5 Z"/></g>
<g><path style="opacity:0.012" fill="#26c1dc" d="M 589.5,300.5 C 590.833,301.167 590.833,301.167 589.5,300.5 Z"/></g>
<g><path style="opacity:0.012" fill="#22bddf" d="M 585.5,301.5 C 586.833,302.167 586.833,302.167 585.5,301.5 Z"/></g>
<g><path style="opacity:0.004" fill="#24c2dd" d="M 590.5,302.5 C 591.833,303.167 591.833,303.167 590.5,302.5 Z"/></g>
<g><path style="opacity:0.008" fill="#2dbdd6" d="M 314.5,303.5 C 315.833,304.167 315.833,304.167 314.5,303.5 Z"/></g>
<g><path style="opacity:0.998" fill="#13bfe0" d="M 675.5,292.5 C 693.709,312.9 707.876,335.9 718,361.5C 718.464,360.906 718.631,360.239 718.5,359.5C 719.674,360.514 720.34,361.847 720.5,363.5C 719.637,362.537 718.97,362.537 718.5,363.5C 719.27,366.413 720.27,369.247 721.5,372C 721.054,373.726 720.221,375.226 719,376.5C 718.985,378.791 718.818,380.958 718.5,383C 719.5,383.333 720.5,383.667 721.5,384C 721.167,384.333 720.833,384.667 720.5,385C 722.134,385.494 723.801,385.66 725.5,385.5C 725.714,387.144 725.38,388.644 724.5,390C 725.691,390.698 726.691,391.531 727.5,392.5C 733.134,421.714 733.967,451.048 730,480.5C 730.21,478.942 730.71,477.609 731.5,476.5C 731.451,480.078 730.785,483.411 729.5,486.5C 729.66,484.801 729.494,483.134 729,481.5C 728.003,484.801 727.67,488.134 728,491.5C 728.232,490.263 728.732,489.263 729.5,488.5C 729.435,491.428 728.768,494.095 727.5,496.5C 727.657,495.127 727.49,493.793 727,492.5C 724.686,499.088 723.02,505.755 722,512.5C 722.383,511.944 722.883,511.611 723.5,511.5C 723.5,512.167 723.5,512.833 723.5,513.5C 722.833,514.167 722.167,514.833 721.5,515.5C 721.607,513.621 721.107,513.288 720,514.5C 717.368,524.601 712.535,533.434 705.5,541C 700.806,542.932 696.139,542.932 691.5,541C 657.308,508.474 623.808,475.308 591,441.5C 588.752,438.672 586.752,435.672 585,432.5C 584.31,431.262 583.81,431.262 583.5,432.5C 581.896,431.713 581.229,430.38 581.5,428.5C 582.222,428.918 582.722,429.584 583,430.5C 583.167,430 583.333,429.5 583.5,429C 580.72,419.997 583.72,414.163 592.5,411.5C 618.842,411.833 645.175,411.5 671.5,410.5C 670.311,409.571 668.978,409.238 667.5,409.5C 668.53,408.448 669.197,407.114 669.5,405.5C 668.828,402.488 668.161,399.488 667.5,396.5C 668.222,396.918 668.722,397.584 669,398.5C 665.392,383.026 659.059,368.693 650,355.5C 649.536,356.094 649.369,356.761 649.5,357.5C 648.094,357.027 647.427,356.027 647.5,354.5C 648.043,354.44 648.376,354.107 648.5,353.5C 647.533,351.37 646.366,349.37 645,347.5C 639.483,340.44 633.983,333.44 628.5,326.5C 630.842,326.225 630.842,325.392 628.5,324C 630.112,323.28 631.612,323.446 633,324.5C 633.29,322.956 633.956,321.623 635,320.5C 635.149,323.279 635.983,323.779 637.5,322C 636.088,320.209 634.255,319.042 632,318.5C 630.513,319.253 630.346,320.086 631.5,321C 630.5,321.667 629.5,321.667 628.5,321C 629.833,320 629.833,319 628.5,318C 629.167,317.667 629.833,317.333 630.5,317C 628.99,316.15 627.49,315.317 626,314.5C 624.899,315.291 624.066,315.291 623.5,314.5C 624.981,313.52 626.315,312.353 627.5,311C 626.167,310.667 624.833,310.333 623.5,310C 625.212,306.845 627.879,305.178 631.5,305C 631.167,304 630.833,303 630.5,302C 632.303,301.363 633.636,300.197 634.5,298.5C 634.736,299.247 635.07,300.08 635.5,301C 634.692,301.308 634.025,301.808 633.5,302.5C 635.978,303.722 636.978,305.722 636.5,308.5C 638.541,308.854 640.374,308.854 642,308.5C 642.492,309.549 642.326,310.549 641.5,311.5C 642.624,312.914 643.624,314.414 644.5,316C 643.262,315.923 642.262,316.089 641.5,316.5C 643.162,318.311 643.328,319.978 642,321.5C 639.87,317.611 638.87,317.945 639,322.5C 639.654,321.304 640.154,321.304 640.5,322.5C 639.572,323.768 639.405,325.101 640,326.5C 640.374,325.584 640.874,324.75 641.5,324C 642.921,322.579 644.755,320.745 647,318.5C 647.333,318.833 647.667,319.167 648,319.5C 649.419,318.54 650.919,317.707 652.5,317C 651.304,316.346 651.304,315.846 652.5,315.5C 653.716,316.002 654.883,316.335 656,316.5C 656.5,316 657,315.5 657.5,315C 653.634,313.407 651.3,310.574 650.5,306.5C 653.284,304.048 652.951,302.048 649.5,300.5C 650.5,299.167 651.5,297.833 652.5,296.5C 653.192,297.025 653.692,297.692 654,298.5C 655.666,297.66 655.833,298.16 654.5,300C 655.448,300.483 656.448,300.649 657.5,300.5C 657.477,302.6 658.144,304.433 659.5,306C 659.108,307.011 658.441,307.511 657.5,307.5C 658.37,309.526 659.87,310.859 662,311.5C 664.096,310.285 663.929,309.451 661.5,309C 663.167,308.667 664.833,308.333 666.5,308C 663.833,307.333 663.833,306.667 666.5,306C 665.743,304.488 664.743,303.154 663.5,302C 664.793,301.51 666.127,301.343 667.5,301.5C 667.351,300.448 667.517,299.448 668,298.5C 668.654,299.696 669.154,299.696 669.5,298.5C 668.631,296.132 666.965,294.632 664.5,294C 665.821,293.22 667.321,292.72 669,292.5C 671.356,293.893 671.856,295.726 670.5,298C 671.833,297.667 673.167,297.333 674.5,297C 673.521,298.779 673.854,300.445 675.5,302C 673.77,303.852 672.604,303.686 672,301.5C 670.5,302.667 669,303.833 667.5,305C 667.982,306.008 668.148,307.175 668,308.5C 669.74,307.284 670.74,305.618 671,303.5C 671.249,304.624 671.749,305.624 672.5,306.5C 673.472,304.364 675.139,303.197 677.5,303C 676.57,301.806 675.903,300.473 675.5,299C 675.577,296.744 675.577,294.577 675.5,292.5 Z"/></g>
<g><path style="opacity:0.004" fill="#28bbd6" d="M 690.5,305.5 C 691.833,306.167 691.833,306.167 690.5,305.5 Z"/></g>
<g><path style="opacity:0.004" fill="#24bede" d="M 400.5,308.5 C 401.833,309.167 401.833,309.167 400.5,308.5 Z"/></g>
<g><path style="opacity:0.008" fill="#25bedd" d="M 601.5,308.5 C 602.833,309.167 602.833,309.167 601.5,308.5 Z"/></g>
<g><path style="opacity:0.004" fill="#22c0dd" d="M 604.5,309.5 C 603.833,310.167 603.833,310.167 604.5,309.5 Z"/></g>
<g><path style="opacity:0.988" fill="#20b0cf" d="M 651.5,266.5 C 665.897,278.562 678.897,291.895 690.5,306.5C 696.503,315.841 702.503,325.175 708.5,334.5C 708.229,336.38 708.896,337.713 710.5,338.5C 713.451,345.4 716.118,352.4 718.5,359.5C 718.631,360.239 718.464,360.906 718,361.5C 707.876,335.9 693.709,312.9 675.5,292.5C 667.697,283.198 659.03,274.698 649.5,267C 650.094,266.536 650.761,266.369 651.5,266.5 Z"/></g>
<g><path style="opacity:0.008" fill="#27bcd7" d="M 693.5,309.5 C 694.833,310.167 694.833,310.167 693.5,309.5 Z"/></g>
<g><path style="opacity:0.004" fill="#23c0dd" d="M 600.5,310.5 C 601.833,311.167 601.833,311.167 600.5,310.5 Z"/></g>
<g><path style="opacity:0.008" fill="#2dbbd3" d="M 309.5,311.5 C 310.833,312.167 310.833,312.167 309.5,311.5 Z"/></g>
<g><path style="opacity:0.004" fill="#27bfdb" d="M 395.5,312.5 C 396.239,312.369 396.906,312.536 397.5,313C 396.563,313.692 395.897,313.525 395.5,312.5 Z"/></g>
<g><path style="opacity:0.008" fill="#28c0dd" d="M 609.5,313.5 C 608.833,314.167 608.833,314.167 609.5,313.5 Z"/></g>
<g><path style="opacity:0.004" fill="#2cbdd6" d="M 697.5,314.5 C 698.833,315.167 698.833,315.167 697.5,314.5 Z"/></g>
<g><path style="opacity:0.004" fill="#25bfdd" d="M 611.5,315.5 C 610.833,316.167 610.833,316.167 611.5,315.5 Z"/></g>
<g><path style="opacity:0.004" fill="#2dbad4" d="M 304.5,316.5 C 305.833,317.167 305.833,317.167 304.5,316.5 Z"/></g>
<g><path style="opacity:0.012" fill="#2dbcd6" d="M 698.5,316.5 C 699.833,317.167 699.833,317.167 698.5,316.5 Z"/></g>
<g><path style="opacity:0.008" fill="#23c1de" d="M 607.5,318.5 C 608.833,319.167 608.833,319.167 607.5,318.5 Z"/></g>
<g><path style="opacity:0.02" fill="#2ac1df" d="M 615.5,320.5 C 616.833,321.167 616.833,321.167 615.5,320.5 Z"/></g>
<g><path style="opacity:0.004" fill="#2bbcd7" d="M 701.5,321.5 C 702.833,322.167 702.833,322.167 701.5,321.5 Z"/></g>
<g><path style="opacity:0.004" fill="#25c2de" d="M 616.5,322.5 C 617.833,323.167 617.833,323.167 616.5,322.5 Z"/></g>
<g><path style="opacity:0.004" fill="#31bbd4" d="M 297.5,327.5 C 298.833,328.167 298.833,328.167 297.5,327.5 Z"/></g>
<g><path style="opacity:0.004" fill="#26c1dd" d="M 624.5,327.5 C 623.833,328.167 623.833,328.167 624.5,327.5 Z"/></g>
<g><path style="opacity:0.016" fill="#27bad2" d="M 299.5,330.5 C 298.833,329.167 298.833,329.167 299.5,330.5 Z"/></g>
<g><path style="opacity:0.004" fill="#2dbdd7" d="M 708.5,331.5 C 709.833,332.167 709.833,332.167 708.5,331.5 Z"/></g>
<g><path style="opacity:0.004" fill="#2ab9d4" d="M 295.5,332.5 C 296.833,333.167 296.833,333.167 295.5,332.5 Z"/></g>
<g><path style="opacity:0.004" fill="#2bbcd8" d="M 708.5,333.5 C 709.833,334.167 709.833,334.167 708.5,333.5 Z"/></g>
<g><path style="opacity:0.012" fill="#26bcd7" d="M 710.5,336.5 C 709.833,335.167 709.833,335.167 710.5,336.5 Z"/></g>
<g><path style="opacity:0.012" fill="#2abbd6" d="M 710.5,336.5 C 711.833,337.167 711.833,337.833 710.5,338.5C 710.5,337.833 710.5,337.167 710.5,336.5 Z"/></g>
<g><path style="opacity:0.004" fill="#2dbad3" d="M 293.5,338.5 C 294.833,339.167 294.833,339.167 293.5,338.5 Z"/></g>
<g><path style="opacity:0.008" fill="#27c2e0" d="M 631.5,338.5 C 632.833,339.167 632.833,339.167 631.5,338.5 Z"/></g>
<g><path style="opacity:0.004" fill="#27bddb" d="M 374.5,340.5 C 375.833,341.167 375.833,341.167 374.5,340.5 Z"/></g>
<g><path style="opacity:0.008" fill="#25c2e1" d="M 635.5,341.5 C 636.833,342.167 636.833,342.167 635.5,341.5 Z"/></g>
<g><path style="opacity:0.004" fill="#25c0da" d="M 367.5,342.5 C 368.833,343.167 368.833,343.167 367.5,342.5 Z"/></g>
<g><path style="opacity:0.973" fill="#21b2d0" d="M 628.5,326.5 C 633.983,333.44 639.483,340.44 645,347.5C 646.366,349.37 647.533,351.37 648.5,353.5C 648.376,354.107 648.043,354.44 647.5,354.5C 641.632,345.62 634.965,337.287 627.5,329.5C 627.586,328.504 627.252,327.671 626.5,327C 627.094,326.536 627.761,326.369 628.5,326.5 Z"/></g>
<g><path style="opacity:0.006" fill="#2ab9d4" d="M 715.5,348.5 C 715.897,347.475 716.563,347.308 717.5,348C 716.906,348.464 716.239,348.631 715.5,348.5 Z"/></g>
<g><path style="opacity:0.004" fill="#28c0dd" d="M 363.5,350.5 C 364.833,351.167 364.833,351.167 363.5,350.5 Z"/></g>
<g><path style="opacity:0.004" fill="#2ac2dd" d="M 644.5,353.5 C 645.833,354.167 645.833,354.167 644.5,353.5 Z"/></g>
<g><path style="opacity:0.012" fill="#2cbdd6" d="M 718.5,353.5 C 719.833,354.167 719.833,354.167 718.5,353.5 Z"/></g>
<g><path style="opacity:0.008" fill="#2cbcd3" d="M 283.5,360.5 C 284.833,361.167 284.833,361.167 283.5,360.5 Z"/></g>
<g><path style="opacity:0.008" fill="#25bfdb" d="M 649.5,359.5 C 649.5,360.167 649.833,360.5 650.5,360.5C 650.44,361.043 650.107,361.376 649.5,361.5C 648.227,360.743 648.227,360.077 649.5,359.5 Z"/></g>
<g><path style="opacity:0.008" fill="#26c1de" d="M 648.5,362.5 C 649.833,363.167 649.833,363.167 648.5,362.5 Z"/></g>
<g><path style="opacity:0.012" fill="#27c1de" d="M 652.5,364.5 C 651.833,365.167 651.833,365.167 652.5,364.5 Z"/></g>
<g><path style="opacity:0.994" fill="#19b9d8" d="M 720.5,363.5 C 724.406,372.454 727.073,381.787 728.5,391.5C 728.5,391.833 728.5,392.167 728.5,392.5C 728.167,392.5 727.833,392.5 727.5,392.5C 726.691,391.531 725.691,390.698 724.5,390C 725.38,388.644 725.714,387.144 725.5,385.5C 723.801,385.66 722.134,385.494 720.5,385C 720.833,384.667 721.167,384.333 721.5,384C 720.5,383.667 719.5,383.333 718.5,383C 718.818,380.958 718.985,378.791 719,376.5C 720.221,375.226 721.054,373.726 721.5,372C 720.27,369.247 719.27,366.413 718.5,363.5C 718.97,362.537 719.637,362.537 720.5,363.5 Z"/></g>
<g><path style="opacity:0.008" fill="#27c1dd" d="M 658.5,379.5 C 659.833,380.167 659.833,380.167 658.5,379.5 Z"/></g>
<g><path style="opacity:1" fill="#22afce" d="M 281.5,380.5 C 280.402,385.149 279.235,389.816 278,394.5C 277.51,393.207 277.343,391.873 277.5,390.5C 278.925,380.796 281.592,371.463 285.5,362.5C 286.363,361.537 287.03,361.537 287.5,362.5C 285.004,368.331 283.004,374.331 281.5,380.5 Z"/></g>
<g><path style="opacity:0.004" fill="#26c3de" d="M 655.5,382.5 C 656.833,383.167 656.833,383.167 655.5,382.5 Z"/></g>
<g><path style="opacity:0.004" fill="#26c1dd" d="M 661.5,382.5 C 660.833,383.167 660.833,383.167 661.5,382.5 Z"/></g>
<g><path style="opacity:0.004" fill="#2ebdd7" d="M 275.5,385.5 C 276.833,386.167 276.833,386.167 275.5,385.5 Z"/></g>
<g><path style="opacity:1" fill="#24b2d1" d="M 667.5,396.5 C 665.677,391.68 663.677,387.013 661.5,382.5C 659.535,375.903 656.535,369.903 652.5,364.5C 652.34,362.847 651.674,361.514 650.5,360.5C 649.833,360.5 649.5,360.167 649.5,359.5C 649.5,358.833 649.5,358.167 649.5,357.5C 649.369,356.761 649.536,356.094 650,355.5C 659.059,368.693 665.392,383.026 669,398.5C 668.722,397.584 668.222,396.918 667.5,396.5 Z"/></g>
<g><path style="opacity:0.004" fill="#2cbad7" d="M 729.5,388.5 C 730.833,389.167 730.833,389.167 729.5,388.5 Z"/></g>
<g><path style="opacity:0.004" fill="#2cbcd6" d="M 732.5,392.5 C 733.833,393.167 733.833,393.167 732.5,392.5 Z"/></g>
<g><path style="opacity:0.004" fill="#2dbed6" d="M 732.5,393.5 C 731.833,394.167 731.833,394.167 732.5,393.5 Z"/></g>
<g><path style="opacity:0.094" fill="#47d0e6" d="M 728.5,391.5 C 730.04,393.838 730.706,396.505 730.5,399.5C 729.388,397.401 728.721,395.067 728.5,392.5C 728.5,392.167 728.5,391.833 728.5,391.5 Z"/></g>
<g><path style="opacity:0.004" fill="#2bbcd6" d="M 273.5,396.5 C 274.525,396.897 274.692,397.563 274,398.5C 273.536,397.906 273.369,397.239 273.5,396.5 Z"/></g>
<g><path style="opacity:0.004" fill="#2fbed6" d="M 731.5,397.5 C 732.833,398.167 732.833,398.167 731.5,397.5 Z"/></g>
<g><path style="opacity:0.008" fill="#28c6df" d="M 665.5,402.5 C 666.833,403.167 666.833,403.167 665.5,402.5 Z"/></g>
<g><path style="opacity:0.996" fill="#1fb2d1" d="M 337.5,402.5 C 337.324,405.727 336.657,408.727 335.5,411.5C 334.833,413.5 334.167,415.5 333.5,417.5C 333.988,414.289 333.321,411.456 331.5,409C 332.191,407.933 332.691,406.766 333,405.5C 333.333,406.5 333.667,407.5 334,408.5C 334.833,405.5 335.667,402.5 336.5,399.5C 337.386,400.325 337.719,401.325 337.5,402.5 Z"/></g>
<g><path style="opacity:0.02" fill="#2ac7e2" d="M 666.5,407.5 C 666.897,406.475 667.563,406.308 668.5,407C 667.906,407.464 667.239,407.631 666.5,407.5 Z"/></g>
<g><path style="opacity:0.988" fill="#1babc9" d="M 276.5,395.5 C 277.139,396.097 277.472,396.93 277.5,398C 276.906,403.873 276.072,409.706 275,415.5C 274.502,412.518 274.335,409.518 274.5,406.5C 274.43,402.575 275.097,398.909 276.5,395.5 Z"/></g>
<g><path style="opacity:0.004" fill="#2cc4dd" d="M 626.5,407.5 C 627.833,408.167 627.833,408.167 626.5,407.5 Z"/></g>
<g><path style="opacity:0.004" fill="#2abfdb" d="M 588.5,408.5 C 589.833,409.167 589.833,409.167 588.5,408.5 Z"/></g>
<g><path style="opacity:0.004" fill="#2dc0d9" d="M 733.5,409.5 C 734.833,410.167 734.833,410.167 733.5,409.5 Z"/></g>
<g><path style="opacity:0.004" fill="#2cbed8" d="M 584.5,410.5 C 585.833,411.167 585.833,411.167 584.5,410.5 Z"/></g>
<g><path style="opacity:0.997" fill="#0ca5c6" d="M 667.5,409.5 C 668.978,409.238 670.311,409.571 671.5,410.5C 645.175,411.5 618.842,411.833 592.5,411.5C 594.228,410.737 596.562,410.07 599.5,409.5C 622.399,409.377 645.066,409.377 667.5,409.5 Z"/></g>
<g><path style="opacity:0.004" fill="#2dbdd5" d="M 271.5,412.5 C 272.525,412.897 272.692,413.563 272,414.5C 271.536,413.906 271.369,413.239 271.5,412.5 Z"/></g>
<g><path style="opacity:0.004" fill="#2fbfd9" d="M 734.5,412.5 C 735.833,413.167 735.833,413.167 734.5,412.5 Z"/></g>
<g><path style="opacity:1" fill="#1fb0ce" d="M 599.5,409.5 C 596.562,410.07 594.228,410.737 592.5,411.5C 583.72,414.163 580.72,419.997 583.5,429C 583.333,429.5 583.167,430 583,430.5C 582.722,429.584 582.222,428.918 581.5,428.5C 579.021,414.636 585.021,408.303 599.5,409.5 Z"/></g>
<g><path style="opacity:0.404" fill="#42cce6" d="M 335.5,411.5 C 335.468,416.391 334.801,421.057 333.5,425.5C 333.5,422.833 333.5,420.167 333.5,417.5C 334.167,415.5 334.833,413.5 335.5,411.5 Z"/></g>
<g><path style="opacity:0.004" fill="#2cbbd6" d="M 578.5,420.5 C 579.833,421.167 579.833,421.167 578.5,420.5 Z"/></g>
<g><path style="opacity:0.008" fill="#2abad3" d="M 576.5,428.5 C 577.833,429.167 577.833,429.167 576.5,428.5 Z"/></g>
<g><path style="opacity:0.004" fill="#27bdd7" d="M 578.5,428.5 C 579.833,429.167 579.833,429.167 578.5,428.5 Z"/></g>
<g><path style="opacity:1" fill="#0198b8" d="M 333.5,417.5 C 333.5,420.167 333.5,422.833 333.5,425.5C 333.5,425.833 333.5,426.167 333.5,426.5C 332.67,435.991 332.17,445.658 332,455.5C 331.833,450.5 331.667,445.5 331.5,440.5C 331.344,432.611 332.01,424.944 333.5,417.5 Z"/></g>
<g><path style="opacity:0.741" fill="#44cee6" d="M 733.5,423.5 C 735.624,435.375 735.624,447.375 733.5,459.5C 733.5,447.5 733.5,435.5 733.5,423.5 Z"/></g>
<g><path style="opacity:0.004" fill="#28c2de" d="M 334.5,436.5 C 335.833,437.167 335.833,437.167 334.5,436.5 Z"/></g>
<g><path style="opacity:0.998" fill="#2aaecb" d="M 273.5,464.5 C 271.415,451.537 271.082,438.537 272.5,425.5C 273.319,422.695 273.819,419.695 274,416.5C 274.167,418.333 274.333,420.167 274.5,422C 273.658,436.334 273.325,450.5 273.5,464.5 Z"/></g>
<g><path style="opacity:0.004" fill="#27bedb" d="M 334.5,442.5 C 335.833,443.167 335.833,443.167 334.5,442.5 Z"/></g>
<g><path style="opacity:1" fill="#1dabc9" d="M 727.5,392.5 C 727.833,392.5 728.167,392.5 728.5,392.5C 728.721,395.067 729.388,397.401 730.5,399.5C 732.242,407.367 733.242,415.367 733.5,423.5C 733.5,435.5 733.5,447.5 733.5,459.5C 733.5,462.5 733.5,465.5 733.5,468.5C 732.833,471.167 732.167,473.833 731.5,476.5C 730.71,477.609 730.21,478.942 730,480.5C 733.967,451.048 733.134,421.714 727.5,392.5 Z"/></g>
<g><path style="opacity:0.004" fill="#29bfdb" d="M 584.5,444.5 C 585.833,445.167 585.833,445.167 584.5,444.5 Z"/></g>
<g><path style="opacity:0.004" fill="#27c1da" d="M 587.5,445.5 C 588.833,446.167 588.833,446.167 587.5,445.5 Z"/></g>
<g><path style="opacity:0.004" fill="#25c0db" d="M 334.5,447.5 C 335.833,448.167 335.833,448.167 334.5,447.5 Z"/></g>
<g><path style="opacity:0.004" fill="#697675" d="M 932.5,448.5 C 933.833,449.167 933.833,449.167 932.5,448.5 Z"/></g>
<g><path style="opacity:0.004" fill="#25c0dd" d="M 593.5,454.5 C 594.833,455.167 594.833,455.167 593.5,454.5 Z"/></g>
<g><path style="opacity:0.004" fill="#27bfdc" d="M 605.5,460.5 C 604.833,461.167 604.833,461.167 605.5,460.5 Z"/></g>
<g><path style="opacity:0.012" fill="#23c1df" d="M 599.5,461.5 C 600.833,462.167 600.833,462.167 599.5,461.5 Z"/></g>
<g><path style="opacity:0.004" fill="#25bfdd" d="M 602.5,462.5 C 603.833,463.167 603.833,463.167 602.5,462.5 Z"/></g>
<g><path style="opacity:0.004" fill="#28bfdc" d="M 607.5,464.5 C 608.833,465.167 608.833,465.167 607.5,464.5 Z"/></g>
<g><path style="opacity:0.008" fill="#30bfd9" d="M 734.5,464.5 C 735.573,465.251 735.74,466.251 735,467.5C 734.517,466.552 734.351,465.552 734.5,464.5 Z"/></g>
<g><path style="opacity:0.004" fill="#2abcd7" d="M 733.5,468.5 C 734.239,468.369 734.906,468.536 735.5,469C 734.563,469.692 733.897,469.525 733.5,468.5 Z"/></g>
<g><path style="opacity:0.008" fill="#27c1e0" d="M 609.5,470.5 C 610.833,471.167 610.833,471.167 609.5,470.5 Z"/></g>
<g><path style="opacity:0.008" fill="#2fbeda" d="M 733.5,470.5 C 734.833,471.167 734.833,471.167 733.5,470.5 Z"/></g>
<g><path style="opacity:0.004" fill="#30bdd3" d="M 271.5,472.5 C 272.833,473.167 272.833,473.167 271.5,472.5 Z"/></g>
<g><path style="opacity:0.008" fill="#27c2dc" d="M 615.5,472.5 C 616.833,473.167 616.833,473.167 615.5,472.5 Z"/></g>
<g><path style="opacity:0.008" fill="#2cbfd8" d="M 733.5,473.5 C 734.833,474.167 734.833,474.167 733.5,473.5 Z"/></g>
<g><path style="opacity:0.004" fill="#29c2df" d="M 615.5,474.5 C 616.833,475.167 616.833,475.167 615.5,474.5 Z"/></g>
<g><path style="opacity:0.012" fill="#26c1de" d="M 620.5,475.5 C 619.833,476.167 619.833,476.167 620.5,475.5 Z"/></g>
<g><path style="opacity:0.004" fill="#2fbdd6" d="M 271.5,477.5 C 271.897,476.475 272.563,476.308 273.5,477C 272.906,477.464 272.239,477.631 271.5,477.5 Z"/></g>
<g><path style="opacity:1" fill="#21adc9" d="M 334.5,464.5 C 335.617,468.295 336.283,472.295 336.5,476.5C 336.318,481.794 335.818,481.794 335,476.5C 334.5,473.5 334,470.5 333.5,467.5C 333.52,466.274 333.853,465.274 334.5,464.5 Z"/></g>
<g><path style="opacity:0.004" fill="#25c1de" d="M 615.5,478.5 C 616.833,479.167 616.833,479.167 615.5,478.5 Z"/></g>
<g><path style="opacity:0.02" fill="#2ec2db" d="M 732.5,478.5 C 733.833,479.167 733.833,479.167 732.5,478.5 Z"/></g>
<g><path style="opacity:0.02" fill="#2ebdd5" d="M 273.5,482.5 C 274.833,483.167 274.833,483.167 273.5,482.5 Z"/></g>
<g><path style="opacity:0.012" fill="#27bed9" d="M 339.5,481.5 C 340.525,481.897 340.692,482.563 340,483.5C 339.536,482.906 339.369,482.239 339.5,481.5 Z"/></g>
<g><path style="opacity:0.004" fill="#2ebfd9" d="M 731.5,484.5 C 732.525,484.897 732.692,485.563 732,486.5C 731.536,485.906 731.369,485.239 731.5,484.5 Z"/></g>
<g><path style="opacity:0.008" fill="#28bfdb" d="M 341.5,487.5 C 342.833,488.167 342.833,488.167 341.5,487.5 Z"/></g>
<g><path style="opacity:0.004" fill="#2eb9d4" d="M 271.5,488.5 C 272.833,489.167 272.833,489.167 271.5,488.5 Z"/></g>
<g><path style="opacity:1" fill="#05a2c0" d="M 729.5,486.5 C 729.5,487.167 729.5,487.833 729.5,488.5C 728.732,489.263 728.232,490.263 728,491.5C 727.67,488.134 728.003,484.801 729,481.5C 729.494,483.134 729.66,484.801 729.5,486.5 Z"/></g>
<g><path style="opacity:0.008" fill="#28c0de" d="M 342.5,490.5 C 343.833,491.167 343.833,491.167 342.5,490.5 Z"/></g>
<g><path style="opacity:0.004" fill="#25c2de" d="M 634.5,491.5 C 635.833,492.167 635.833,492.167 634.5,491.5 Z"/></g>
<g><path style="opacity:0.004" fill="#27c2de" d="M 632.5,492.5 C 633.833,493.167 633.833,493.167 632.5,492.5 Z"/></g>
<g><path style="opacity:0.004" fill="#30bad2" d="M 276.5,496.5 C 277.833,497.167 277.833,497.167 276.5,496.5 Z"/></g>
<g><path style="opacity:0.004" fill="#28bcd8" d="M 344.5,497.5 C 345.833,498.167 345.833,498.167 344.5,497.5 Z"/></g>
<g><path style="opacity:0.004" fill="#24c2e1" d="M 640.5,500.5 C 641.833,501.167 641.833,501.167 640.5,500.5 Z"/></g>
<g><path style="opacity:1" fill="#24b2cf" d="M 727.5,496.5 C 726.81,501.257 725.81,505.924 724.5,510.5C 723.833,510.5 723.5,510.833 723.5,511.5C 722.883,511.611 722.383,511.944 722,512.5C 723.02,505.755 724.686,499.088 727,492.5C 727.49,493.793 727.657,495.127 727.5,496.5 Z"/></g>
<g><path style="opacity:1" fill="#21b1d0" d="M 721.5,515.5 C 718.804,525.392 714.138,534.225 707.5,542C 704.361,543.728 701.028,544.894 697.5,545.5C 694.356,544.427 691.356,543.093 688.5,541.5C 681.22,534.555 673.886,527.555 666.5,520.5C 664.167,517.5 661.5,514.833 658.5,512.5C 646.442,499.441 633.775,487.107 620.5,475.5C 615.806,470.14 610.806,465.14 605.5,460.5C 600.575,454.07 595.075,448.07 589,442.5C 586.888,439.273 585.055,435.94 583.5,432.5C 583.81,431.262 584.31,431.262 585,432.5C 586.752,435.672 588.752,438.672 591,441.5C 623.808,475.308 657.308,508.474 691.5,541C 696.139,542.932 700.806,542.932 705.5,541C 712.535,533.434 717.368,524.601 720,514.5C 721.107,513.288 721.607,513.621 721.5,515.5 Z"/></g>
<g><path style="opacity:0.004" fill="#26c0de" d="M 649.5,506.5 C 650.525,506.897 650.692,507.563 650,508.5C 649.536,507.906 649.369,507.239 649.5,506.5 Z"/></g>
<g><path style="opacity:0.004" fill="#31bfd8" d="M 280.5,510.5 C 281.833,511.167 281.833,511.167 280.5,510.5 Z"/></g>
<g><path style="opacity:0.008" fill="#29c3e0" d="M 652.5,510.5 C 653.833,511.167 653.833,511.167 652.5,510.5 Z"/></g>
<g><path style="opacity:0.008" fill="#2cbfd7" d="M 724.5,510.5 C 725.833,511.167 725.833,511.167 724.5,510.5 Z"/></g>
<g><path style="opacity:0.008" fill="#26c4e0" d="M 619.5,511.5 C 620.833,512.167 620.833,512.167 619.5,511.5 Z"/></g>
<g><path style="opacity:0.012" fill="#2bb9d3" d="M 279.5,512.5 C 280.833,513.167 280.833,513.167 279.5,512.5 Z"/></g>
<g><path style="opacity:0.004" fill="#25c1dd" d="M 658.5,512.5 C 657.833,513.167 657.833,513.167 658.5,512.5 Z"/></g>
<g><path style="opacity:0.004" fill="#29c5e0" d="M 569.5,514.5 C 570.833,515.167 570.833,515.167 569.5,514.5 Z"/></g>
<g><path style="opacity:0.008" fill="#2bc6e3" d="M 633.5,514.5 C 634.833,515.167 634.833,515.167 633.5,514.5 Z"/></g>
<g><path style="opacity:0.004" fill="#28c1e0" d="M 655.5,514.5 C 656.833,515.167 656.833,515.167 655.5,514.5 Z"/></g>
<g><path style="opacity:0.004" fill="#2dbcd6" d="M 723.5,513.5 C 724.525,513.897 724.692,514.563 724,515.5C 723.536,514.906 723.369,514.239 723.5,513.5 Z"/></g>
<g><path style="opacity:0.004" fill="#28bcd6" d="M 282.5,515.5 C 283.833,516.167 283.833,516.167 282.5,515.5 Z"/></g>
<g><path style="opacity:0.008" fill="#2bbcd7" d="M 283.5,517.5 C 284.525,517.897 284.692,518.563 284,519.5C 283.536,518.906 283.369,518.239 283.5,517.5 Z"/></g>
<g><path style="opacity:0.012" fill="#26c4df" d="M 655.5,518.5 C 656.833,519.167 656.833,519.167 655.5,518.5 Z"/></g>
<g><path style="opacity:0.016" fill="#28c1da" d="M 354.5,519.5 C 355.833,520.167 355.833,520.167 354.5,519.5 Z"/></g>
<g><path style="opacity:0.004" fill="#26bed9" d="M 358.5,519.5 C 359.833,520.167 359.833,520.167 358.5,519.5 Z"/></g>
<g><path style="opacity:0.004" fill="#23c1dc" d="M 666.5,520.5 C 665.833,521.167 665.833,521.167 666.5,520.5 Z"/></g>
<g><path style="opacity:0.998" fill="#13bfe0" d="M 350.5,367.5 C 345.277,378.926 340.944,390.593 337.5,402.5C 337.719,401.325 337.386,400.325 336.5,399.5C 335.667,402.5 334.833,405.5 334,408.5C 333.667,407.5 333.333,406.5 333,405.5C 332.691,406.766 332.191,407.933 331.5,409C 333.321,411.456 333.988,414.289 333.5,417.5C 332.01,424.944 331.344,432.611 331.5,440.5C 331.667,445.5 331.833,450.5 332,455.5C 332.17,445.658 332.67,435.991 333.5,426.5C 333.334,436.839 333.5,447.172 334,457.5C 335.113,459.592 335.279,461.925 334.5,464.5C 333.853,465.274 333.52,466.274 333.5,467.5C 334,470.5 334.5,473.5 335,476.5C 335.818,481.794 336.318,481.794 336.5,476.5C 337.612,478.599 338.279,480.933 338.5,483.5C 337.778,483.082 337.278,482.416 337,481.5C 339.433,493.717 343.6,505.384 349.5,516.5C 348.732,517.263 348.232,518.263 348,519.5C 347.667,519.167 347.333,518.833 347,518.5C 345.638,519.925 344.138,520.758 342.5,521C 346.5,521.667 346.5,522.333 342.5,523C 345.167,524 345.167,525 342.5,526C 343.333,526.833 344.167,527.667 345,528.5C 346,527.167 347,527.167 348,528.5C 348.749,527.365 348.583,526.365 347.5,525.5C 346.604,526.506 345.938,526.506 345.5,525.5C 346.914,524.376 348.414,523.376 350,522.5C 350.671,526.518 351.337,530.851 352,535.5C 353.824,536.749 353.657,537.915 351.5,539C 352.833,539.667 352.833,540.333 351.5,541C 353.569,541.324 353.902,542.158 352.5,543.5C 353.002,544.521 353.668,544.688 354.5,544C 354.13,542.39 354.797,540.89 356.5,539.5C 357.731,540.651 357.731,541.817 356.5,543C 357.766,543.309 358.933,543.809 360,544.5C 360.669,541.972 361.502,541.972 362.5,544.5C 361.041,546.583 359.708,548.75 358.5,551C 359.432,553.651 360.765,553.985 362.5,552C 361.483,550.951 361.316,549.784 362,548.5C 362.667,551.167 363.333,551.167 364,548.5C 366.065,550.874 365.899,553.04 363.5,555C 364.328,555.915 365.328,556.581 366.5,557C 366.043,557.414 365.709,557.914 365.5,558.5C 366.274,559.711 367.107,559.711 368,558.5C 368.065,560.883 368.898,561.55 370.5,560.5C 371.5,560.833 372.167,561.5 372.5,562.5C 370.693,562.696 369.026,563.863 367.5,566C 368.726,568.601 368.06,569.435 365.5,568.5C 365.167,569.167 364.833,569.833 364.5,570.5C 363.416,569.335 362.583,568.002 362,566.5C 361.021,568.32 359.521,569.487 357.5,570C 359.076,571.577 360.909,572.744 363,573.5C 364.057,572.373 365.223,571.873 366.5,572C 366.167,572.333 365.833,572.667 365.5,573C 366.833,573.667 368.167,574.333 369.5,575C 366.833,576 366.833,577 369.5,578C 368.151,579.635 368.318,581.135 370,582.5C 373.416,578.719 373.25,575.052 369.5,571.5C 370.313,570.186 371.313,569.019 372.5,568C 371.672,567.085 370.672,566.419 369.5,566C 371.433,565.217 372.933,565.717 374,567.5C 374.388,566.572 375.055,565.905 376,565.5C 376.546,566.289 377.213,567.289 378,568.5C 379,567.833 380,567.167 381,566.5C 381.195,568.207 381.195,569.874 381,571.5C 381.333,571.167 381.667,570.833 382,570.5C 382.5,571.667 383.333,572.5 384.5,573C 382.071,573.451 381.904,574.285 384,575.5C 384.915,574.672 385.581,573.672 386,572.5C 386.202,574.256 386.702,575.922 387.5,577.5C 387.669,576.603 388.002,575.603 388.5,574.5C 389.5,575.833 390.5,575.833 391.5,574.5C 391.755,576.343 391.922,578.343 392,580.5C 393.303,581.112 394.47,581.446 395.5,581.5C 394.5,582.167 393.5,582.833 392.5,583.5C 392.725,587.37 391.891,587.37 390,583.5C 389.25,584.126 388.416,584.626 387.5,585C 388.214,586.343 387.88,587.676 386.5,589C 386.982,590.008 387.148,591.175 387,592.5C 389.176,590.056 392.009,589.223 395.5,590C 393.624,591.375 391.624,592.542 389.5,593.5C 391.116,595.929 393.616,598.262 397,600.5C 397.853,598.875 398.853,598.542 400,599.5C 400.576,601.377 400.409,603.211 399.5,605C 400.646,605.759 401.646,606.426 402.5,607C 401.288,607.254 400.122,608.087 399,609.5C 397.424,610.013 396.091,609.346 395,607.5C 393.775,607.862 392.609,608.362 391.5,609C 394.446,611.349 395.446,614.182 394.5,617.5C 397.462,617.883 398.462,616.883 397.5,614.5C 398.328,613.585 399.328,612.919 400.5,612.5C 400.572,615.594 400.906,618.594 401.5,621.5C 402.631,622.604 403.465,622.271 404,620.5C 404.75,621.126 405.584,621.626 406.5,622C 405.5,623 404.5,624 403.5,625C 404.956,625.423 405.456,626.256 405,627.5C 403.316,629.706 401.149,631.206 398.5,632C 399.215,634.081 400.215,636.247 401.5,638.5C 398.309,638.538 394.976,638.871 391.5,639.5C 391.5,641.833 391.5,644.167 391.5,646.5C 382.652,652.478 373.652,658.312 364.5,664C 365.094,664.464 365.761,664.631 366.5,664.5C 362.653,667.593 358.32,669.926 353.5,671.5C 351.801,671.34 350.134,671.506 348.5,672C 340.405,676.729 331.739,679.062 322.5,679C 321.756,677.961 320.756,677.461 319.5,677.5C 315.399,672.167 314.399,666.167 316.5,659.5C 316.333,658.833 316.167,658.167 316,657.5C 315.722,658.416 315.222,659.082 314.5,659.5C 314.721,656.933 315.388,654.599 316.5,652.5C 316.343,653.873 316.51,655.207 317,656.5C 322.029,641.329 326.529,625.996 330.5,610.5C 330.457,609.584 330.124,608.917 329.5,608.5C 329.846,605.115 330.512,601.782 331.5,598.5C 330.822,596.484 330.156,594.484 329.5,592.5C 331.105,593.969 331.605,593.635 331,591.5C 317.675,575.839 306.342,558.839 297,540.5C 296.536,541.094 296.369,541.761 296.5,542.5C 295.326,541.486 294.66,540.153 294.5,538.5C 295.65,539.85 296.317,539.684 296.5,538C 286.287,517.69 279.454,496.19 276,473.5C 275.505,475.473 275.338,477.473 275.5,479.5C 274.301,474.799 273.301,469.966 272.5,465C 272.728,464.601 273.062,464.435 273.5,464.5C 273.325,450.5 273.658,436.334 274.5,422C 274.333,420.167 274.167,418.333 274,416.5C 273.819,419.695 273.319,422.695 272.5,425.5C 272.454,418.95 273.121,412.617 274.5,406.5C 274.335,409.518 274.502,412.518 275,415.5C 276.072,409.706 276.906,403.873 277.5,398C 277.472,396.93 277.139,396.097 276.5,395.5C 276.216,393.585 276.549,391.919 277.5,390.5C 277.343,391.873 277.51,393.207 278,394.5C 279.235,389.816 280.402,385.149 281.5,380.5C 282.306,381.868 283.306,383.201 284.5,384.5C 284.519,386.106 284.353,387.772 284,389.5C 285.587,388.273 286.921,388.606 288,390.5C 288.219,389.062 288.719,387.729 289.5,386.5C 289.906,387.557 289.906,388.891 289.5,390.5C 291.143,390.52 292.476,389.853 293.5,388.5C 294.833,390.833 294.833,393.167 293.5,395.5C 292.808,394.975 292.308,394.308 292,393.5C 288.903,394.289 288.736,395.456 291.5,397C 287.62,398.857 287.954,400.19 292.5,401C 290.951,402.214 289.785,403.714 289,405.5C 288.164,403.158 286.83,401.158 285,399.5C 284.333,400.167 283.667,400.833 283,401.5C 282.107,400.289 281.274,400.289 280.5,401.5C 282.673,404.172 285.173,406.506 288,408.5C 288.333,408.167 288.667,407.833 289,407.5C 290.487,408.253 290.654,409.086 289.5,410C 290.5,410.667 291.5,410.667 292.5,410C 291.549,409.282 291.383,408.449 292,407.5C 293.324,408.88 294.657,409.214 296,408.5C 296.98,409.981 298.147,411.315 299.5,412.5C 300.202,410.533 300.202,408.866 299.5,407.5C 301.754,408.124 303.421,409.457 304.5,411.5C 305.711,410.726 305.711,409.893 304.5,409C 305.744,408.544 306.577,409.044 307,410.5C 307.689,409.643 308.522,408.977 309.5,408.5C 311.213,413.408 312.547,413.741 313.5,409.5C 314.914,410.465 315.747,411.465 316,412.5C 317.171,411.66 318.338,410.827 319.5,410C 318.72,408.927 318.887,407.76 320,406.5C 321.261,409.82 322.928,410.154 325,407.5C 326.596,409.936 328.429,410.436 330.5,409C 329.33,407.245 327.663,406.245 325.5,406C 326.5,405.667 327.5,405.333 328.5,405C 327.281,402.717 327.281,400.384 328.5,398C 327.907,396.118 326.573,395.118 324.5,395C 328.101,393.237 331.601,392.071 335,391.5C 336.294,392.854 336.46,394.188 335.5,395.5C 336.167,396.833 336.833,396.833 337.5,395.5C 339.779,388.326 342.446,381.326 345.5,374.5C 344.294,372.851 342.961,371.351 341.5,370C 342.662,369.173 343.829,368.34 345,367.5C 345.945,367.905 346.612,368.572 347,369.5C 348,368.167 349,366.833 350,365.5C 350.464,366.094 350.631,366.761 350.5,367.5 Z"/></g>
<g><path style="opacity:0.004" fill="#6d7471" d="M 987.5,525.5 C 988.833,526.167 988.833,526.167 987.5,525.5 Z"/></g>
<g><path style="opacity:0.998" fill="#13bfe0" d="M 638.5,518.5 C 644.13,519.463 647.463,522.796 648.5,528.5C 647.883,528.389 647.383,528.056 647,527.5C 646.667,560.167 646.333,592.833 646,625.5C 644.454,626.503 644.287,627.503 645.5,628.5C 645.167,629.5 644.5,630.167 643.5,630.5C 638.952,630.944 634.285,630.444 629.5,629C 625.6,625.19 621.934,621.19 618.5,617C 616.29,615.261 613.79,614.094 611,613.5C 605.431,617.037 599.931,620.703 594.5,624.5C 593.817,624.137 593.15,623.804 592.5,623.5C 591.127,623.657 589.793,623.49 588.5,623C 589.089,619.654 588.422,619.654 586.5,623C 584.559,623.743 582.726,623.576 581,622.5C 580.361,625.228 579.194,625.728 577.5,624C 580.167,623.333 580.167,622.667 577.5,622C 578.308,621.692 578.975,621.192 579.5,620.5C 577.816,616.918 578.483,616.085 581.5,618C 581.043,618.414 580.709,618.914 580.5,619.5C 582.193,620.228 583.693,621.228 585,622.5C 585.507,621.004 585.007,619.837 583.5,619C 586.095,617.654 586.762,615.82 585.5,613.5C 585.719,612.062 586.219,610.729 587,609.5C 587.333,610.167 587.667,610.833 588,611.5C 589.399,610.773 590.899,610.273 592.5,610C 590.321,608.858 587.988,608.025 585.5,607.5C 585.105,611.256 583.438,611.422 580.5,608C 581.667,606.833 582.833,605.667 584,604.5C 584.333,605.167 584.667,605.833 585,606.5C 586.289,604.945 586.956,603.279 587,601.5C 585.326,603.009 583.66,603.676 582,603.5C 581.086,599.815 580.419,600.148 580,604.5C 579.667,603.833 579.333,603.167 579,602.5C 578,602.833 577,603.167 576,603.5C 575.28,601.888 575.446,600.388 576.5,599C 574.043,597.488 574.043,596.154 576.5,595C 574.717,593.933 574.217,592.433 575,590.5C 575.333,591.167 575.667,591.833 576,592.5C 576.5,591.333 577.333,590.5 578.5,590C 576.009,589.374 576.009,588.541 578.5,587.5C 579.326,586.549 579.492,585.549 579,584.5C 577.602,583.949 576.268,583.616 575,583.5C 574.026,585.878 573.359,585.544 573,582.5C 572.5,583 572,583.5 571.5,584C 572.711,585.113 572.711,586.28 571.5,587.5C 570.478,588.354 569.645,589.354 569,590.5C 567.913,588.068 567.413,588.402 567.5,591.5C 566.07,591.421 564.736,591.754 563.5,592.5C 562.5,592.167 561.833,591.5 561.5,590.5C 564.48,588.772 567.146,586.605 569.5,584C 568.004,583.493 566.837,583.993 566,585.5C 565.732,583.41 566.732,582.076 569,581.5C 569.333,580.167 569.667,578.833 570,577.5C 570.893,576.289 571.726,576.289 572.5,577.5C 569.934,581.008 570.434,581.341 574,578.5C 574.333,579.167 574.667,579.833 575,580.5C 575.684,579.216 575.517,578.049 574.5,577C 576.486,577.794 578.319,577.294 580,575.5C 580.14,578.043 580.806,580.377 582,582.5C 581.791,579.854 581.958,577.354 582.5,575C 578.148,574.581 577.815,573.914 581.5,573C 578.772,572.361 578.272,571.194 580,569.5C 581.509,570.09 583.009,570.756 584.5,571.5C 583.145,572.675 583.312,573.675 585,574.5C 586.109,572.185 587.943,570.685 590.5,570C 588.905,570.617 587.572,570.284 586.5,569C 588.108,568.531 589.775,567.865 591.5,567C 588.937,566.082 586.77,566.582 585,568.5C 584.581,567.328 583.915,566.328 583,565.5C 583.263,566.951 583.096,568.284 582.5,569.5C 580.356,568.047 578.523,568.38 577,570.5C 576.28,568.888 576.446,567.388 577.5,566C 577.167,565.833 576.833,565.667 576.5,565.5C 575.749,566.376 575.249,567.376 575,568.5C 573.244,567.579 573.077,566.412 574.5,565C 573.212,565.027 572.212,564.027 571.5,562C 572.833,561 572.833,560 571.5,559C 572.5,558.667 573.5,558.333 574.5,558C 574.167,557.667 573.833,557.333 573.5,557C 576.01,555.859 577.176,554.026 577,551.5C 576.667,552.167 576.333,552.833 576,553.5C 574.602,552.949 573.268,552.616 572,552.5C 571.316,551.216 571.483,550.049 572.5,549C 570.578,547.54 569.911,545.873 570.5,544C 571.167,543.667 571.833,543.333 572.5,543C 568.194,540.81 567.194,541.644 569.5,545.5C 568.975,546.192 568.308,546.692 567.5,547C 568.376,548.586 569.376,550.086 570.5,551.5C 569.635,551.564 568.635,551.897 567.5,552.5C 566.494,552.062 566.494,551.396 567.5,550.5C 566.277,549.386 564.944,549.219 563.5,550C 564.815,551.395 564.481,552.395 562.5,553C 563.308,553.308 563.975,553.808 564.5,554.5C 565.165,556.101 565.499,557.601 565.5,559C 564.181,559.195 562.847,559.028 561.5,558.5C 554.2,551.031 547.033,543.364 540,535.5C 536.161,530.861 535.994,526.361 539.5,522C 540.833,521.333 542.167,520.667 543.5,520C 575.336,519.832 607.003,519.332 638.5,518.5 Z"/></g>
<g><path style="opacity:0.004" fill="#2cbcd7" d="M 289.5,532.5 C 290.833,533.167 290.833,533.167 289.5,532.5 Z"/></g>
<g><path style="opacity:1" fill="#26afcd" d="M 294.5,538.5 C 293.5,537.167 292.5,535.833 291.5,534.5C 285.58,520.239 280.747,505.573 277,490.5C 276.444,492.595 275.944,492.762 275.5,491C 276.13,487.223 276.13,483.39 275.5,479.5C 275.338,477.473 275.505,475.473 276,473.5C 279.454,496.19 286.287,517.69 296.5,538C 296.317,539.684 295.65,539.85 294.5,538.5 Z"/></g>
<g><path style="opacity:0.008" fill="#2cbbd6" d="M 291.5,534.5 C 290.833,535.167 290.833,535.167 291.5,534.5 Z"/></g>
<g><path style="opacity:0.012" fill="#30c1de" d="M 688.5,541.5 C 687.833,542.167 687.833,542.167 688.5,541.5 Z"/></g>
<g><path style="opacity:0.996" fill="#23b4d2" d="M 638.5,518.5 C 607.003,519.332 575.336,519.832 543.5,520C 542.167,520.667 540.833,521.333 539.5,522C 535.994,526.361 536.161,530.861 540,535.5C 547.033,543.364 554.2,551.031 561.5,558.5C 563.075,561.582 565.242,564.249 568,566.5C 568.692,567.437 568.525,568.103 567.5,568.5C 566.5,567.833 565.5,567.167 564.5,566.5C 558.508,559.175 552.175,552.175 545.5,545.5C 540.45,540.573 536.783,534.739 534.5,528C 535.119,523.417 537.452,520.083 541.5,518C 557.624,516.872 573.791,516.372 590,516.5C 604.5,516.667 619,516.833 633.5,517C 635.382,517.198 637.048,517.698 638.5,518.5 Z"/></g>
<g><path style="opacity:0.996" fill="#23b5d2" d="M 648.5,528.5 C 649.652,559.791 649.818,591.125 649,622.5C 648.576,625.025 647.41,627.025 645.5,628.5C 644.287,627.503 644.454,626.503 646,625.5C 646.333,592.833 646.667,560.167 647,527.5C 647.383,528.056 647.883,528.389 648.5,528.5 Z"/></g>
<g><path style="opacity:0.004" fill="#28c4de" d="M 650.5,556.5 C 651.833,557.167 651.833,557.167 650.5,556.5 Z"/></g>
<g><path style="opacity:0.016" fill="#29bfd7" d="M 305.5,562.5 C 306.833,563.167 306.833,563.167 305.5,562.5 Z"/></g>
<g><path style="opacity:0.004" fill="#2bbfd9" d="M 304.5,564.5 C 305.833,565.167 305.833,565.167 304.5,564.5 Z"/></g>
<g><path style="opacity:0.004" fill="#607f7f" d="M 148.5,568.5 C 149.833,569.167 149.833,569.167 148.5,568.5 Z"/></g>
<g><path style="opacity:0.984" fill="#24b0ce" d="M 329.5,592.5 C 327.473,591.139 325.806,589.473 324.5,587.5C 324.5,586.833 324.167,586.5 323.5,586.5C 313.147,573.22 304.147,558.553 296.5,542.5C 296.369,541.761 296.536,541.094 297,540.5C 306.342,558.839 317.675,575.839 331,591.5C 331.605,593.635 331.105,593.969 329.5,592.5 Z"/></g>
<g><path style="opacity:1" fill="#21b2d1" d="M 338.5,483.5 C 342.291,496.553 347.624,508.886 354.5,520.5C 366.315,542.646 382.649,560.646 403.5,574.5C 408.124,578.82 413.457,582.154 419.5,584.5C 420.78,585.931 422.447,586.598 424.5,586.5C 430.261,589.752 436.261,592.418 442.5,594.5C 442.918,595.222 443.584,595.722 444.5,596C 424.826,590.996 407.16,581.996 391.5,569C 373.799,554.416 359.799,536.916 349.5,516.5C 343.6,505.384 339.433,493.717 337,481.5C 337.278,482.416 337.778,483.082 338.5,483.5 Z"/></g>
<g><path style="opacity:0.008" fill="#29c2dd" d="M 650.5,580.5 C 651.833,581.167 651.833,581.167 650.5,580.5 Z"/></g>
<g><path style="opacity:0.004" fill="#27c0da" d="M 650.5,584.5 C 651.833,585.167 651.833,585.167 650.5,584.5 Z"/></g>
<g><path style="opacity:0.008" fill="#27bcd7" d="M 323.5,586.5 C 324.167,586.5 324.5,586.833 324.5,587.5C 324.44,588.043 324.107,588.376 323.5,588.5C 322.227,587.743 322.227,587.077 323.5,586.5 Z"/></g>
<g><path style="opacity:0.004" fill="#29bdd9" d="M 323.5,590.5 C 322.833,589.167 322.833,589.167 323.5,590.5 Z"/></g>
<g><path style="opacity:0.004" fill="#2abfdc" d="M 323.5,590.5 C 324.833,591.167 324.833,591.167 323.5,590.5 Z"/></g>
<g><path style="opacity:0.004" fill="#28bedb" d="M 328.5,595.5 C 329.833,596.167 329.833,596.167 328.5,595.5 Z"/></g>
<g><path style="opacity:0.998" fill="#14bfe0" d="M 349.5,516.5 C 359.799,536.916 373.799,554.416 391.5,569C 407.16,581.996 424.826,590.996 444.5,596C 443.584,595.722 442.918,595.222 442.5,594.5C 453.494,597.275 464.494,599.275 475.5,600.5C 472.482,600.335 469.482,600.502 466.5,601C 482.256,603.206 497.923,602.706 513.5,599.5C 534.061,594.916 552.394,585.916 568.5,572.5C 568.03,571.537 567.363,571.537 566.5,572.5C 566.833,571.167 567.167,569.833 567.5,568.5C 568.525,568.103 568.692,567.437 568,566.5C 565.242,564.249 563.075,561.582 561.5,558.5C 562.847,559.028 564.181,559.195 565.5,559C 565.499,557.601 565.165,556.101 564.5,554.5C 563.975,553.808 563.308,553.308 562.5,553C 564.481,552.395 564.815,551.395 563.5,550C 564.944,549.219 566.277,549.386 567.5,550.5C 566.494,551.396 566.494,552.062 567.5,552.5C 568.635,551.897 569.635,551.564 570.5,551.5C 569.376,550.086 568.376,548.586 567.5,547C 568.308,546.692 568.975,546.192 569.5,545.5C 567.194,541.644 568.194,540.81 572.5,543C 571.833,543.333 571.167,543.667 570.5,544C 569.911,545.873 570.578,547.54 572.5,549C 571.483,550.049 571.316,551.216 572,552.5C 573.268,552.616 574.602,552.949 576,553.5C 576.333,552.833 576.667,552.167 577,551.5C 577.176,554.026 576.01,555.859 573.5,557C 573.833,557.333 574.167,557.667 574.5,558C 573.5,558.333 572.5,558.667 571.5,559C 572.833,560 572.833,561 571.5,562C 572.212,564.027 573.212,565.027 574.5,565C 573.077,566.412 573.244,567.579 575,568.5C 575.249,567.376 575.749,566.376 576.5,565.5C 576.833,565.667 577.167,565.833 577.5,566C 576.446,567.388 576.28,568.888 577,570.5C 578.523,568.38 580.356,568.047 582.5,569.5C 583.096,568.284 583.263,566.951 583,565.5C 583.915,566.328 584.581,567.328 585,568.5C 586.77,566.582 588.937,566.082 591.5,567C 589.775,567.865 588.108,568.531 586.5,569C 587.572,570.284 588.905,570.617 590.5,570C 587.943,570.685 586.109,572.185 585,574.5C 583.312,573.675 583.145,572.675 584.5,571.5C 583.009,570.756 581.509,570.09 580,569.5C 578.272,571.194 578.772,572.361 581.5,573C 577.815,573.914 578.148,574.581 582.5,575C 581.958,577.354 581.791,579.854 582,582.5C 580.806,580.377 580.14,578.043 580,575.5C 578.319,577.294 576.486,577.794 574.5,577C 575.517,578.049 575.684,579.216 575,580.5C 574.667,579.833 574.333,579.167 574,578.5C 570.434,581.341 569.934,581.008 572.5,577.5C 571.726,576.289 570.893,576.289 570,577.5C 569.667,578.833 569.333,580.167 569,581.5C 566.732,582.076 565.732,583.41 566,585.5C 566.837,583.993 568.004,583.493 569.5,584C 567.146,586.605 564.48,588.772 561.5,590.5C 561.833,591.5 562.5,592.167 563.5,592.5C 564.736,591.754 566.07,591.421 567.5,591.5C 567.413,588.402 567.913,588.068 569,590.5C 569.645,589.354 570.478,588.354 571.5,587.5C 572.711,586.28 572.711,585.113 571.5,584C 572,583.5 572.5,583 573,582.5C 573.359,585.544 574.026,585.878 575,583.5C 576.268,583.616 577.602,583.949 579,584.5C 579.492,585.549 579.326,586.549 578.5,587.5C 576.009,588.541 576.009,589.374 578.5,590C 577.333,590.5 576.5,591.333 576,592.5C 575.667,591.833 575.333,591.167 575,590.5C 574.217,592.433 574.717,593.933 576.5,595C 574.043,596.154 574.043,597.488 576.5,599C 575.446,600.388 575.28,601.888 576,603.5C 577,603.167 578,602.833 579,602.5C 579.333,603.167 579.667,603.833 580,604.5C 580.419,600.148 581.086,599.815 582,603.5C 583.66,603.676 585.326,603.009 587,601.5C 586.956,603.279 586.289,604.945 585,606.5C 584.667,605.833 584.333,605.167 584,604.5C 582.833,605.667 581.667,606.833 580.5,608C 583.438,611.422 585.105,611.256 585.5,607.5C 587.988,608.025 590.321,608.858 592.5,610C 590.899,610.273 589.399,610.773 588,611.5C 587.667,610.833 587.333,610.167 587,609.5C 586.219,610.729 585.719,612.062 585.5,613.5C 586.762,615.82 586.095,617.654 583.5,619C 585.007,619.837 585.507,621.004 585,622.5C 583.693,621.228 582.193,620.228 580.5,619.5C 580.709,618.914 581.043,618.414 581.5,618C 578.483,616.085 577.816,616.918 579.5,620.5C 578.975,621.192 578.308,621.692 577.5,622C 580.167,622.667 580.167,623.333 577.5,624C 579.194,625.728 580.361,625.228 581,622.5C 582.726,623.576 584.559,623.743 586.5,623C 588.422,619.654 589.089,619.654 588.5,623C 589.793,623.49 591.127,623.657 592.5,623.5C 591.883,625.229 590.883,626.729 589.5,628C 590.448,628.483 591.448,628.649 592.5,628.5C 582.793,634.687 572.793,640.354 562.5,645.5C 552.313,649.229 541.98,652.562 531.5,655.5C 533.054,654.105 532.721,653.439 530.5,653.5C 519.608,655.982 508.608,657.815 497.5,659C 500.482,659.498 503.482,659.665 506.5,659.5C 496.655,661.059 486.322,661.725 475.5,661.5C 475.5,661.167 475.5,660.833 475.5,660.5C 481.509,660.666 487.509,660.499 493.5,660C 484.179,659 474.845,658.667 465.5,659C 467.708,659.191 469.708,659.691 471.5,660.5C 466.29,660.392 461.29,659.725 456.5,658.5C 459.187,658.664 461.854,658.497 464.5,658C 457.488,656.831 450.488,655.665 443.5,654.5C 441.833,654.5 440.167,654.5 438.5,654.5C 427.42,652.307 416.753,648.807 406.5,644C 402.897,643.157 399.564,643.657 396.5,645.5C 396.44,644.957 396.107,644.624 395.5,644.5C 394.378,645.63 393.044,646.297 391.5,646.5C 391.5,644.167 391.5,641.833 391.5,639.5C 394.976,638.871 398.309,638.538 401.5,638.5C 400.215,636.247 399.215,634.081 398.5,632C 401.149,631.206 403.316,629.706 405,627.5C 405.456,626.256 404.956,625.423 403.5,625C 404.5,624 405.5,623 406.5,622C 405.584,621.626 404.75,621.126 404,620.5C 403.465,622.271 402.631,622.604 401.5,621.5C 400.906,618.594 400.572,615.594 400.5,612.5C 399.328,612.919 398.328,613.585 397.5,614.5C 398.462,616.883 397.462,617.883 394.5,617.5C 395.446,614.182 394.446,611.349 391.5,609C 392.609,608.362 393.775,607.862 395,607.5C 396.091,609.346 397.424,610.013 399,609.5C 400.122,608.087 401.288,607.254 402.5,607C 401.646,606.426 400.646,605.759 399.5,605C 400.409,603.211 400.576,601.377 400,599.5C 398.853,598.542 397.853,598.875 397,600.5C 393.616,598.262 391.116,595.929 389.5,593.5C 391.624,592.542 393.624,591.375 395.5,590C 392.009,589.223 389.176,590.056 387,592.5C 387.148,591.175 386.982,590.008 386.5,589C 387.88,587.676 388.214,586.343 387.5,585C 388.416,584.626 389.25,584.126 390,583.5C 391.891,587.37 392.725,587.37 392.5,583.5C 393.5,582.833 394.5,582.167 395.5,581.5C 394.47,581.446 393.303,581.112 392,580.5C 391.922,578.343 391.755,576.343 391.5,574.5C 390.5,575.833 389.5,575.833 388.5,574.5C 388.002,575.603 387.669,576.603 387.5,577.5C 386.702,575.922 386.202,574.256 386,572.5C 385.581,573.672 384.915,574.672 384,575.5C 381.904,574.285 382.071,573.451 384.5,573C 383.333,572.5 382.5,571.667 382,570.5C 381.667,570.833 381.333,571.167 381,571.5C 381.195,569.874 381.195,568.207 381,566.5C 380,567.167 379,567.833 378,568.5C 377.213,567.289 376.546,566.289 376,565.5C 375.055,565.905 374.388,566.572 374,567.5C 372.933,565.717 371.433,565.217 369.5,566C 370.672,566.419 371.672,567.085 372.5,568C 371.313,569.019 370.313,570.186 369.5,571.5C 373.25,575.052 373.416,578.719 370,582.5C 368.318,581.135 368.151,579.635 369.5,578C 366.833,577 366.833,576 369.5,575C 368.167,574.333 366.833,573.667 365.5,573C 365.833,572.667 366.167,572.333 366.5,572C 365.223,571.873 364.057,572.373 363,573.5C 360.909,572.744 359.076,571.577 357.5,570C 359.521,569.487 361.021,568.32 362,566.5C 362.583,568.002 363.416,569.335 364.5,570.5C 364.833,569.833 365.167,569.167 365.5,568.5C 368.06,569.435 368.726,568.601 367.5,566C 369.026,563.863 370.693,562.696 372.5,562.5C 372.167,561.5 371.5,560.833 370.5,560.5C 368.898,561.55 368.065,560.883 368,558.5C 367.107,559.711 366.274,559.711 365.5,558.5C 365.709,557.914 366.043,557.414 366.5,557C 365.328,556.581 364.328,555.915 363.5,555C 365.899,553.04 366.065,550.874 364,548.5C 363.333,551.167 362.667,551.167 362,548.5C 361.316,549.784 361.483,550.951 362.5,552C 360.765,553.985 359.432,553.651 358.5,551C 359.708,548.75 361.041,546.583 362.5,544.5C 361.502,541.972 360.669,541.972 360,544.5C 358.933,543.809 357.766,543.309 356.5,543C 357.731,541.817 357.731,540.651 356.5,539.5C 354.797,540.89 354.13,542.39 354.5,544C 353.668,544.688 353.002,544.521 352.5,543.5C 353.902,542.158 353.569,541.324 351.5,541C 352.833,540.333 352.833,539.667 351.5,539C 353.657,537.915 353.824,536.749 352,535.5C 351.337,530.851 350.671,526.518 350,522.5C 348.414,523.376 346.914,524.376 345.5,525.5C 345.938,526.506 346.604,526.506 347.5,525.5C 348.583,526.365 348.749,527.365 348,528.5C 347,527.167 346,527.167 345,528.5C 344.167,527.667 343.333,526.833 342.5,526C 345.167,525 345.167,524 342.5,523C 346.5,522.333 346.5,521.667 342.5,521C 344.138,520.758 345.638,519.925 347,518.5C 347.333,518.833 347.667,519.167 348,519.5C 348.232,518.263 348.732,517.263 349.5,516.5 Z"/></g>
<g><path style="opacity:1" fill="#20b0cf" d="M 508.5,598.5 C 510.415,598.216 512.081,598.549 513.5,599.5C 497.923,602.706 482.256,603.206 466.5,601C 469.482,600.502 472.482,600.335 475.5,600.5C 486.553,600.608 497.553,599.942 508.5,598.5 Z"/></g>
<g><path style="opacity:0.004" fill="#28c1de" d="M 521.5,592.5 C 522.833,593.167 522.833,593.167 521.5,592.5 Z"/></g>
<g><path style="opacity:0.016" fill="#26c2dc" d="M 443.5,592.5 C 444.833,593.167 444.833,593.167 443.5,592.5 Z"/></g>
<g><path style="opacity:0.008" fill="#27bfdb" d="M 524.5,593.5 C 523.475,593.103 523.308,592.437 524,591.5C 524.464,592.094 524.631,592.761 524.5,593.5 Z"/></g>
<g><path style="opacity:1" fill="#21b1d0" d="M 513.5,599.5 C 512.081,598.549 510.415,598.216 508.5,598.5C 513.922,597.144 519.255,595.477 524.5,593.5C 539.857,589.155 553.857,582.155 566.5,572.5C 567.363,571.537 568.03,571.537 568.5,572.5C 552.394,585.916 534.061,594.916 513.5,599.5 Z"/></g>
<g><path style="opacity:0.004" fill="#2ac4de" d="M 540.5,585.5 C 541.833,586.167 541.833,586.167 540.5,585.5 Z"/></g>
<g><path style="opacity:0.004" fill="#27c0dd" d="M 424.5,585.5 C 425.833,586.167 425.833,586.167 424.5,585.5 Z"/></g>
<g><path style="opacity:0.012" fill="#2dc4dc" d="M 544.5,583.5 C 545.833,584.167 545.833,584.167 544.5,583.5 Z"/></g>
<g><path style="opacity:0.02" fill="#2ebfda" d="M 419.5,583.5 C 420.833,584.167 420.833,584.167 419.5,583.5 Z"/></g>
<g><path style="opacity:0.004" fill="#27c4de" d="M 553.5,578.5 C 554.833,579.167 554.833,579.167 553.5,578.5 Z"/></g>
<g><path style="opacity:0.004" fill="#26c2de" d="M 555.5,575.5 C 556.833,576.167 556.833,576.167 555.5,575.5 Z"/></g>
<g><path style="opacity:0.004" fill="#27bed8" d="M 403.5,573.5 C 404.833,574.167 404.833,574.167 403.5,573.5 Z"/></g>
<g><path style="opacity:0.004" fill="#25bbdb" d="M 406.5,570.5 C 407.833,571.167 407.833,571.167 406.5,570.5 Z"/></g>
<g><path style="opacity:0.004" fill="#27c1de" d="M 564.5,566.5 C 563.833,567.167 563.833,567.167 564.5,566.5 Z"/></g>
<g><path style="opacity:0.016" fill="#27c2de" d="M 559.5,565.5 C 560.833,566.167 560.833,566.167 559.5,565.5 Z"/></g>
<g><path style="opacity:0.004" fill="#23bedc" d="M 390.5,560.5 C 391.833,561.167 391.833,561.167 390.5,560.5 Z"/></g>
<g><path style="opacity:0.004" fill="#27c1dd" d="M 552.5,556.5 C 551.833,557.167 551.833,557.167 552.5,556.5 Z"/></g>
<g><path style="opacity:0.004" fill="#25bfde" d="M 552.5,555.5 C 553.833,556.167 553.833,556.167 552.5,555.5 Z"/></g>
<g><path style="opacity:0.004" fill="#24c0dc" d="M 546.5,548.5 C 547.833,549.167 547.833,549.167 546.5,548.5 Z"/></g>
<g><path style="opacity:0.008" fill="#28c2de" d="M 544.5,548.5 C 545.833,549.167 545.833,549.167 544.5,548.5 Z"/></g>
<g><path style="opacity:0.004" fill="#29c3da" d="M 545.5,545.5 C 544.833,546.167 544.833,546.167 545.5,545.5 Z"/></g>
<g><path style="opacity:0.008" fill="#25bcd9" d="M 373.5,545.5 C 374.833,546.167 374.833,546.167 373.5,545.5 Z"/></g>
<g><path style="opacity:0.004" fill="#23bcd5" d="M 327.5,606.5 C 328.833,607.167 328.833,607.167 327.5,606.5 Z"/></g>
<g><path style="opacity:0.008" fill="#29bed6" d="M 650.5,612.5 C 651.833,613.167 651.833,613.167 650.5,612.5 Z"/></g>
<g><path style="opacity:0.992" fill="#22b3d2" d="M 643.5,630.5 C 643.158,631.338 642.492,631.672 641.5,631.5C 637.833,631.5 634.167,631.5 630.5,631.5C 625.931,629.433 622.431,626.1 620,621.5C 618.729,620.117 617.229,619.117 615.5,618.5C 613.881,616.762 611.881,616.262 609.5,617C 603.805,620.843 598.138,624.677 592.5,628.5C 591.448,628.649 590.448,628.483 589.5,628C 590.883,626.729 591.883,625.229 592.5,623.5C 593.15,623.804 593.817,624.137 594.5,624.5C 599.931,620.703 605.431,617.037 611,613.5C 613.79,614.094 616.29,615.261 618.5,617C 621.934,621.19 625.6,625.19 629.5,629C 634.285,630.444 638.952,630.944 643.5,630.5 Z"/></g>
<g><path style="opacity:0.008" fill="#2dc2de" d="M 615.5,618.5 C 614.833,619.167 614.833,619.167 615.5,618.5 Z"/></g>
<g><path style="opacity:0.008" fill="#2cbfd7" d="M 321.5,626.5 C 322.833,627.167 322.833,627.167 321.5,626.5 Z"/></g>
<g><path style="opacity:0.976" fill="#20b0cd" d="M 329.5,608.5 C 330.124,608.917 330.457,609.584 330.5,610.5C 326.529,625.996 322.029,641.329 317,656.5C 316.51,655.207 316.343,653.873 316.5,652.5C 317.836,646.815 319.17,641.149 320.5,635.5C 323.299,626.437 326.299,617.437 329.5,608.5 Z"/></g>
<g><path style="opacity:0.004" fill="#2ec2de" d="M 593.5,629.5 C 594.833,630.167 594.833,630.167 593.5,629.5 Z"/></g>
<g><path style="opacity:0.004" fill="#29bad4" d="M 320.5,630.5 C 321.833,631.167 321.833,631.167 320.5,630.5 Z"/></g>
<g><path style="opacity:0.004" fill="#2dc3df" d="M 595.5,630.5 C 596.833,631.167 596.833,631.167 595.5,630.5 Z"/></g>
<g><path style="opacity:0.984" fill="#36bcd4" d="M 630.5,631.5 C 634.167,631.5 637.833,631.5 641.5,631.5C 637.865,634.065 634.199,634.065 630.5,631.5 Z"/></g>
<g><path style="opacity:0.004" fill="#2ebdd6" d="M 320.5,635.5 C 319.833,634.167 319.833,634.167 320.5,635.5 Z"/></g>
<g><path style="opacity:0.004" fill="#4c939b" d="M 731.5,637.5 C 732.833,638.167 732.833,638.167 731.5,637.5 Z"/></g>
<g><path style="opacity:0.004" fill="#2fbcd4" d="M 317.5,639.5 C 318.833,640.167 318.833,640.167 317.5,639.5 Z"/></g>
<g><path style="opacity:0.004" fill="#2abdd7" d="M 562.5,645.5 C 563.833,646.167 563.833,646.167 562.5,645.5 Z"/></g>
<g><path style="opacity:0.004" fill="#6a7775" d="M 883.5,645.5 C 884.833,646.167 884.833,646.167 883.5,645.5 Z"/></g>
<g><path style="opacity:0.016" fill="#2bbdd9" d="M 560.5,646.5 C 561.833,647.167 561.833,647.167 560.5,646.5 Z"/></g>
<g><path style="opacity:0.004" fill="#2dbfd8" d="M 417.5,651.5 C 418.833,652.167 418.833,652.167 417.5,651.5 Z"/></g>
<g><path style="opacity:0.008" fill="#2bc0dc" d="M 388.5,652.5 C 389.833,653.167 389.833,653.167 388.5,652.5 Z"/></g>
<g><path style="opacity:0.012" fill="#28bedb" d="M 426.5,653.5 C 425.833,652.167 425.833,652.167 426.5,653.5 Z"/></g>
<g><path style="opacity:0.004" fill="#2cbed9" d="M 545.5,652.5 C 546.833,653.167 546.833,653.167 545.5,652.5 Z"/></g>
<g><path style="opacity:0.004" fill="#2bbdd7" d="M 426.5,653.5 C 427.833,654.167 427.833,654.167 426.5,653.5 Z"/></g>
<g><path style="opacity:0.004" fill="#687676" d="M 867.5,653.5 C 868.833,654.167 868.833,654.167 867.5,653.5 Z"/></g>
<g><path style="opacity:0.988" fill="#3bc5df" d="M 438.5,654.5 C 440.167,654.5 441.833,654.5 443.5,654.5C 444.167,655.167 444.833,655.833 445.5,656.5C 442.933,656.279 440.599,655.612 438.5,654.5 Z"/></g>
<g><path style="opacity:1" fill="#1cafce" d="M 443.5,654.5 C 450.488,655.665 457.488,656.831 464.5,658C 461.854,658.497 459.187,658.664 456.5,658.5C 452.742,658.152 449.076,657.485 445.5,656.5C 444.833,655.833 444.167,655.167 443.5,654.5 Z"/></g>
<g><path style="opacity:0.004" fill="#2fbbd6" d="M 312.5,656.5 C 313.833,657.167 313.833,657.167 312.5,656.5 Z"/></g>
<g><path style="opacity:0.937" fill="#26b2cf" d="M 531.5,655.5 C 523.296,657.607 514.963,658.941 506.5,659.5C 503.482,659.665 500.482,659.498 497.5,659C 508.608,657.815 519.608,655.982 530.5,653.5C 532.721,653.439 533.054,654.105 531.5,655.5 Z"/></g>
<g><path style="opacity:0.004" fill="#2cc0d9" d="M 380.5,657.5 C 381.833,658.167 381.833,658.167 380.5,657.5 Z"/></g>
<g><path style="opacity:0.004" fill="#687372" d="M 113.5,658.5 C 114.833,659.167 114.833,659.167 113.5,658.5 Z"/></g>
<g><path style="opacity:0.008" fill="#2abed7" d="M 449.5,658.5 C 450.833,659.167 450.833,659.167 449.5,658.5 Z"/></g>
<g><path style="opacity:0.931" fill="#0ba6c8" d="M 475.5,660.5 C 474.167,660.5 472.833,660.5 471.5,660.5C 469.708,659.691 467.708,659.191 465.5,659C 474.845,658.667 484.179,659 493.5,660C 487.509,660.499 481.509,660.666 475.5,660.5 Z"/></g>
<g><path style="opacity:0.004" fill="#2bbdd7" d="M 524.5,659.5 C 525.833,660.167 525.833,660.167 524.5,659.5 Z"/></g>
<g><path style="opacity:0.984" fill="#24b4d2" d="M 396.5,645.5 C 393.833,647.833 391.167,650.167 388.5,652.5C 385.489,653.669 382.822,655.336 380.5,657.5C 377.489,658.669 374.822,660.336 372.5,662.5C 370.5,663.167 368.5,663.833 366.5,664.5C 365.761,664.631 365.094,664.464 364.5,664C 373.652,658.312 382.652,652.478 391.5,646.5C 393.044,646.297 394.378,645.63 395.5,644.5C 396.107,644.624 396.44,644.957 396.5,645.5 Z"/></g>
<g><path style="opacity:0.008" fill="#26bad7" d="M 462.5,660.5 C 463.833,661.167 463.833,661.167 462.5,660.5 Z"/></g>
<g><path style="opacity:0.004" fill="#2bbed7" d="M 511.5,661.5 C 511.897,660.475 512.563,660.308 513.5,661C 512.906,661.464 512.239,661.631 511.5,661.5 Z"/></g>
<g><path style="opacity:0.008" fill="#2cbed6" d="M 519.5,660.5 C 520.833,661.167 520.833,661.167 519.5,660.5 Z"/></g>
<g><path style="opacity:0.004" fill="#29c1d9" d="M 471.5,661.5 C 472.833,662.167 472.833,662.167 471.5,661.5 Z"/></g>
<g><path style="opacity:0.012" fill="#27bdd7" d="M 475.5,661.5 C 474.833,662.167 474.833,662.167 475.5,661.5 Z"/></g>
<g><path style="opacity:0.012" fill="#2cbfd9" d="M 499.5,662.5 C 499.897,661.475 500.563,661.308 501.5,662C 500.906,662.464 500.239,662.631 499.5,662.5 Z"/></g>
<g><path style="opacity:0.004" fill="#2cc0d9" d="M 504.5,661.5 C 505.833,662.167 505.833,662.167 504.5,661.5 Z"/></g>
<g><path style="opacity:0.004" fill="#29bed7" d="M 507.5,661.5 C 508.833,662.167 508.833,662.167 507.5,661.5 Z"/></g>
<g><path style="opacity:0.004" fill="#2abfd5" d="M 514.5,661.5 C 515.833,662.167 515.833,662.167 514.5,661.5 Z"/></g>
<g><path style="opacity:0.004" fill="#2ebed3" d="M 518.5,662.5 C 517.833,661.167 517.833,661.167 518.5,662.5 Z"/></g>
<g><path style="opacity:0.012" fill="#2cbad3" d="M 311.5,662.5 C 312.833,663.167 312.833,663.167 311.5,662.5 Z"/></g>
<g><path style="opacity:0.012" fill="#2ec0da" d="M 372.5,662.5 C 373.833,663.167 373.833,663.167 372.5,662.5 Z"/></g>
<g><path style="opacity:0.004" fill="#2abed7" d="M 467.5,661.5 C 468.525,661.897 468.692,662.563 468,663.5C 467.536,662.906 467.369,662.239 467.5,661.5 Z"/></g>
<g><path style="opacity:0.004" fill="#2abcd9" d="M 478.5,662.5 C 479.833,663.167 479.833,663.167 478.5,662.5 Z"/></g>
<g><path style="opacity:0.004" fill="#2dbed6" d="M 483.5,663.5 C 483.897,662.475 484.563,662.308 485.5,663C 484.906,663.464 484.239,663.631 483.5,663.5 Z"/></g>
<g><path style="opacity:0.008" fill="#2dbcd2" d="M 518.5,662.5 C 519.833,663.167 519.833,663.167 518.5,662.5 Z"/></g>
<g><path style="opacity:1" fill="#1fa8c5" d="M 319.5,677.5 C 318.833,677.5 318.167,677.5 317.5,677.5C 315.864,676.251 314.697,674.584 314,672.5C 313.186,667.98 313.353,663.646 314.5,659.5C 315.222,659.082 315.722,658.416 316,657.5C 316.167,658.167 316.333,658.833 316.5,659.5C 314.399,666.167 315.399,672.167 319.5,677.5 Z"/></g>
<g><path style="opacity:0.008" fill="#32b3ca" d="M 314.5,677.5 C 315.833,678.167 315.833,678.167 314.5,677.5 Z"/></g>
<g><path style="opacity:0.016" fill="#2fb0c7" d="M 317.5,678.5 C 316.833,679.167 316.833,679.167 317.5,678.5 Z"/></g>
<g><path style="opacity:0.004" fill="#33bcd4" d="M 341.5,678.5 C 342.833,679.167 342.833,679.167 341.5,678.5 Z"/></g>
<g><path style="opacity:0.004" fill="#30b9d4" d="M 349.5,678.5 C 350.833,679.167 350.833,679.167 349.5,678.5 Z"/></g>
<g><path style="opacity:1" fill="#23b0cc" d="M 353.5,671.5 C 344.241,678.127 333.908,681.294 322.5,681C 320.807,680.153 319.14,679.32 317.5,678.5C 317.5,678.167 317.5,677.833 317.5,677.5C 318.167,677.5 318.833,677.5 319.5,677.5C 320.756,677.461 321.756,677.961 322.5,679C 331.739,679.062 340.405,676.729 348.5,672C 350.134,671.506 351.801,671.34 353.5,671.5 Z"/></g>
<g><path style="opacity:0.004" fill="#36b3c9" d="M 321.5,682.5 C 322.833,683.167 322.833,683.167 321.5,682.5 Z"/></g>
<g><path style="opacity:0.008" fill="#36b6cc" d="M 331.5,682.5 C 332.833,683.167 332.833,683.167 331.5,682.5 Z"/></g>
<g><path style="opacity:0.012" fill="#36b3ca" d="M 324.5,683.5 C 325.833,684.167 325.833,684.167 324.5,683.5 Z"/></g>
<g><path style="opacity:0.004" fill="#6d726e" d="M 69.5,698.5 C 70.8333,699.167 70.8333,699.167 69.5,698.5 Z"/></g>
<g><path style="opacity:0.004" fill="#6f7371" d="M 939.5,709.5 C 940.833,710.167 940.833,710.167 939.5,709.5 Z"/></g>
<g><path style="opacity:0.004" fill="#6e7372" d="M 915.5,717.5 C 916.833,718.167 916.833,718.167 915.5,717.5 Z"/></g>
<g><path style="opacity:0.004" fill="#697371" d="M 841.5,754.5 C 842.833,755.167 842.833,755.167 841.5,754.5 Z"/></g>
<g><path style="opacity:0.004" fill="#6d7170" d="M 899.5,765.5 C 900.833,766.167 900.833,766.167 899.5,765.5 Z"/></g>
<g><path style="opacity:0.004" fill="#6c706e" d="M 900.5,784.5 C 901.833,785.167 901.833,785.167 900.5,784.5 Z"/></g>
<g><path style="opacity:0.004" fill="#5f7676" d="M 411.5,837.5 C 412.833,838.167 412.833,838.167 411.5,837.5 Z"/></g>
<g><path style="opacity:0.004" fill="#63716f" d="M 619.5,853.5 C 620.833,854.167 620.833,854.167 619.5,853.5 Z"/></g>
<g><path style="opacity:0.004" fill="#667371" d="M 318.5,858.5 C 319.833,859.167 319.833,859.167 318.5,858.5 Z"/></g>
<g><path style="opacity:0.004" fill="#6e6f6e" d="M 19.5,861.5 C 20.8333,862.167 20.8333,862.167 19.5,861.5 Z"/></g>
<g><path style="opacity:0.004" fill="#687170" d="M 667.5,861.5 C 668.833,862.167 668.833,862.167 667.5,861.5 Z"/></g>
<g><path style="opacity:0.004" fill="#68716f" d="M 731.5,861.5 C 732.833,862.167 732.833,862.167 731.5,861.5 Z"/></g>
<g><path style="opacity:0.004" fill="#68716e" d="M 683.5,869.5 C 684.833,870.167 684.833,870.167 683.5,869.5 Z"/></g>
<g><path style="opacity:0.004" fill="#6f706d" d="M 876.5,891.5 C 877.833,892.167 877.833,892.167 876.5,891.5 Z"/></g>
<g><path style="opacity:0.004" fill="#66716f" d="M 467.5,893.5 C 468.833,894.167 468.833,894.167 467.5,893.5 Z"/></g>
<g><path style="opacity:0.004" fill="#67716f" d="M 484.5,896.5 C 485.833,897.167 485.833,897.167 484.5,896.5 Z"/></g>
<g><path style="opacity:0.004" fill="#68716e" d="M 531.5,901.5 C 532.833,902.167 532.833,902.167 531.5,901.5 Z"/></g>
<g><path style="opacity:0.004" fill="#6e706e" d="M 795.5,901.5 C 796.833,902.167 796.833,902.167 795.5,901.5 Z"/></g>
<g><path style="opacity:0.004" fill="#69716e" d="M 531.5,909.5 C 532.833,910.167 532.833,910.167 531.5,909.5 Z"/></g>
<g><path style="opacity:0.004" fill="#6a726f" d="M 371.5,917.5 C 372.833,918.167 372.833,918.167 371.5,917.5 Z"/></g>
<g><path style="opacity:0.004" fill="#6a726f" d="M 379.5,917.5 C 380.833,918.167 380.833,918.167 379.5,917.5 Z"/></g>
<g><path style="opacity:0.004" fill="#69706e" d="M 555.5,917.5 C 556.833,918.167 556.833,918.167 555.5,917.5 Z"/></g>
<g><path style="opacity:0.004" fill="#6f6f6f" d="M 43.5,925.5 C 44.8333,926.167 44.8333,926.167 43.5,925.5 Z"/></g>
<g><path style="opacity:0.004" fill="#697170" d="M 395.5,925.5 C 396.833,926.167 396.833,926.167 395.5,925.5 Z"/></g>
<g><path style="opacity:0.004" fill="#6a716f" d="M 587.5,925.5 C 588.833,926.167 588.833,926.167 587.5,925.5 Z"/></g>
<g><path style="opacity:0.004" fill="#6f706e" d="M 835.5,925.5 C 836.833,926.167 836.833,926.167 835.5,925.5 Z"/></g>
<g><path style="opacity:0.004" fill="#6e6f6d" d="M 20.5,928.5 C 21.8333,929.167 21.8333,929.167 20.5,928.5 Z"/></g>
<g><path style="opacity:0.004" fill="#6b726f" d="M 555.5,933.5 C 556.833,934.167 556.833,934.167 555.5,933.5 Z"/></g>
<g><path style="opacity:0.004" fill="#6c716d" d="M 294.5,946.5 C 295.833,947.167 295.833,947.167 294.5,946.5 Z"/></g>
<g><path style="opacity:0.004" fill="#6f6f6e" d="M 773.5,962.5 C 774.833,963.167 774.833,963.167 773.5,962.5 Z"/></g>
<g><path style="opacity:0.004" fill="#6d7270" d="M 403.5,965.5 C 404.833,966.167 404.833,966.167 403.5,965.5 Z"/></g>
<g><path style="opacity:0.004" fill="#6e716e" d="M 579.5,965.5 C 580.833,966.167 580.833,966.167 579.5,965.5 Z"/></g>
<g><path style="opacity:0.004" fill="#6f706f" d="M 923.5,973.5 C 924.833,974.167 924.833,974.167 923.5,973.5 Z"/></g>
<g><path style="opacity:0.004" fill="#6f7070" d="M 830.5,979.5 C 831.833,980.167 831.833,980.167 830.5,979.5 Z"/></g>
<g><path style="opacity:0.004" fill="#70706e" d="M 740.5,984.5 C 741.833,985.167 741.833,985.167 740.5,984.5 Z"/></g>
<g><path style="opacity:0.004" fill="#6d7171" d="M 419.5,989.5 C 420.833,990.167 420.833,990.167 419.5,989.5 Z"/></g>
<g><path style="opacity:0.004" fill="#6c706f" d="M 467.5,1005.5 C 468.833,1006.17 468.833,1006.17 467.5,1005.5 Z"/></g>
<g><path style="opacity:0.004" fill="#6e7171" d="M 611.5,1021.5 C 612.833,1022.17 612.833,1022.17 611.5,1021.5 Z"/></g>
</svg>
